# This file uses centimeters as units for non-parametric coordinates.

v -79.257832 218.133187 0.000058
v -53.190253 226.465072 53.568280
v 19.232327 216.033723 63.710236
v 70.950050 242.546017 30.535026
v 69.522596 213.653576 -25.008192
v 13.862376 205.577370 -62.943943
v -45.381038 220.873229 -62.282821
v -101.112620 118.659248 0.000058
v -40.520707 118.659248 60.471463
v 17.576782 118.659248 54.038821
v 46.964815 118.659248 28.043477
v 77.168773 118.659248 -24.185901
v 12.467144 118.659248 -86.705459
v -69.349242 118.659248 -70.380941
v -92.021039 14.101840 0.000058
v -52.207126 14.101840 63.359609
v 18.033077 14.101840 79.008122
v 73.014444 14.101840 35.161943
v 73.014427 14.101840 -35.161841
v 16.353510 14.101840 -79.008009
v -61.508708 14.101840 -63.359479
v -31.863236 239.330057 -37.543375
v 12.477297 208.427060 -38.591219
v 47.742050 223.819818 -16.091299
v 52.997958 250.550262 18.641165
v 12.598351 230.587953 37.233567
v -32.554777 229.370607 33.152828
v -48.522721 246.037139 0.000056
v -59.638379 -2.000002 0.000056
v -34.622027 -2.000002 40.434056
v 11.508120 -2.000002 50.420421
v 46.595429 -2.000002 22.439226
v 46.595416 -2.000002 -22.439113
v 9.131131 -2.000002 -50.420308
v -40.166406 -2.000002 -40.433930
vt 0.101044 0.189147
vt 0.207101 0.190869
vt 0.190555 0.318166
vt 0.118607 0.312682
vt 0.282902 0.191846
vt 0.276472 0.312096
vt 0.334163 0.190625
vt 0.347397 0.335562
vt 0.412032 0.190648
vt 0.412157 0.305008
vt 0.522992 0.190176
vt 0.499659 0.304748
vt 0.622420 0.187675
vt 0.042777 0.345975
vt 0.111380 0.062628
vt 0.196394 0.062379
vt 0.272966 0.063033
vt 0.347135 0.063471
vt 0.422711 0.064170
vt 0.501112 0.059739
vt 0.595670 0.035372
vt 0.555612 0.001626
vt 0.490335 0.023319
vt 0.418442 0.023532
vt 0.346953 0.025478
vt 0.275366 0.025838
vt 0.201784 0.027747
vt 0.128580 0.021523
vt 0.082884 0.375630
vt 0.455150 0.425887
vt 0.498599 0.419656
vt 0.527932 0.387577
vt 0.491037 0.356867
vt 0.449626 0.340139
vt 0.413724 0.357271
vt 0.138757 0.361394
vt 0.409768 0.398063
vt 0.201810 0.347419
vt 0.273310 0.349759
vt 0.348330 0.356848
vt 0.414169 0.335988
vt 0.480980 0.332196
vt 0.037285 0.036736
vt 0.572892 0.333898
vt 0.542350 0.368636
vt 0.001046 0.192046
vt 0.073560 0.001626
vn -0.992324 0.056433 0.110041
vn -0.458882 0.052990 0.886916
vn -0.519524 0.174982 0.836347
vn -0.960002 0.267106 0.083967
vn 0.290719 0.059987 0.954926
vn 0.268595 0.082157 0.959743
vn 0.834535 0.032741 0.549982
vn 0.836031 0.107334 0.538081
vn 0.942212 0.048479 -0.331493
vn 0.939067 0.129729 -0.318315
vn 0.250944 0.049104 -0.966755
vn 0.313863 0.262462 -0.912471
vn -0.617525 0.054721 -0.784646
vn -0.517062 0.339018 -0.785948
vn -0.972761 -0.186110 0.138203
vn -0.527726 -0.099634 0.843551
vn 0.254870 -0.033471 0.966396
vn 0.867900 -0.053161 0.493885
vn 0.903246 -0.110705 -0.414598
vn 0.264852 -0.177635 -0.947786
vn -0.578866 -0.232007 -0.781720
vn -0.051332 0.946167 -0.319583
vn 0.163589 0.936183 -0.311126
vn -0.019396 0.911387 -0.411093
vn -0.068658 0.995221 -0.069437
vn -0.091340 0.986366 0.136894
vn -0.002908 0.982506 0.186206
vn -0.175518 0.984471 -0.003148
vn -0.446267 -0.894103 0.037756
vn -0.278569 -0.874777 0.396439
vn 0.105944 -0.875870 0.470773
vn 0.433661 -0.876541 0.208840
vn 0.426175 -0.878383 -0.216376
vn 0.095957 -0.875899 -0.472856
vn -0.264474 -0.887383 -0.377630
s 1
f 8/1/1 9/2/2 2/3/3 1/4/4
f 9/2/2 10/5/5 3/6/6 2/3/3
f 10/5/5 11/7/7 4/8/8 3/6/6
f 11/7/7 12/9/9 5/10/10 4/8/8
f 12/9/9 13/11/11 6/12/12 5/10/10
f 13/11/11 14/13/13 7/44/14 6/12/12
f 14/46/13 8/1/1 1/4/4 7/14/14
f 15/15/15 16/16/16 9/2/2 8/1/1
f 16/16/16 17/17/17 10/5/5 9/2/2
f 17/17/17 18/18/18 11/7/7 10/5/5
f 18/18/18 19/19/19 12/9/9 11/7/7
f 19/19/19 20/20/20 13/11/11 12/9/9
f 20/20/20 21/21/21 14/13/13 13/11/11
f 21/43/21 15/15/15 8/1/1 14/46/13
f 22/45/22 23/42/23 6/12/12 7/44/14
f 23/42/23 24/41/24 5/10/10 6/12/12
f 24/41/24 25/40/25 4/8/8 5/10/10
f 25/40/25 26/39/26 3/6/6 4/8/8
f 26/39/26 27/38/27 2/3/3 3/6/6
f 27/38/27 28/36/28 1/4/4 2/3/3
f 28/36/28 22/29/22 7/14/14 1/4/4
f 29/28/29 30/27/30 16/16/16 15/15/15
f 30/27/30 31/26/31 17/17/17 16/16/16
f 31/26/31 32/25/32 18/18/18 17/17/17
f 32/25/32 33/24/33 19/19/19 18/18/18
f 33/24/33 34/23/34 20/20/20 19/19/19
f 34/23/34 35/22/35 21/21/21 20/20/20
f 35/47/35 29/28/29 15/15/15 21/43/21
f 27/34/27 26/33/26 23/30/23
f 28/35/28 23/30/23 22/37/22
f 26/33/26 24/31/24 23/30/23
f 28/35/28 27/34/27 23/30/23
f 26/33/26 25/32/25 24/31/24
v -37.063666 234.700419 -38.544299
v 3.137960 203.177133 -41.138950
v 31.593258 214.911234 -21.757760
v 35.214637 233.375805 8.186641
v 12.473622 213.540808 21.995392
v -37.376784 219.397399 18.454396
v -50.860747 235.656383 -7.596322
v -53.540553 266.176882 -58.790280
v 8.731664 239.745887 -63.751832
v 44.733938 233.904178 -29.187061
v 53.611734 245.915730 20.051886
v 16.943077 224.756861 51.685546
v -52.592565 242.081210 38.368174
v -63.240260 256.742955 -6.020752
v -47.082432 394.631519 -49.140107
v 10.392305 431.108111 -53.889175
v 66.700920 462.254150 -20.464855
v 60.602468 464.264975 35.247035
v 9.449303 430.252119 70.834807
v -45.204518 376.600083 52.835846
v -77.340578 409.718835 7.081119
v -41.830644 368.240051 -41.894965
v 14.620990 342.265535 -66.011192
v 83.666089 400.363087 -30.090542
v 79.046778 398.608906 27.784002
v 13.357318 362.818369 61.438880
v -43.954885 323.203031 43.680731
v -61.932698 340.748875 0.878590
v -41.142008 410.950479 -36.311904
v 8.362967 434.695884 -44.558722
v 49.036468 476.547381 -14.964778
v 50.123364 472.949596 31.718233
v 8.368569 444.348949 58.462192
v -39.165334 394.723277 46.135362
v -59.568081 422.011117 6.730311
vt 0.516390 0.671539
vt 0.125925 0.660461
vt 0.146812 0.711391
vt 0.074102 0.695427
vt 0.189027 0.660037
vt 0.192270 0.688197
vt 0.250808 0.639386
vt 0.245712 0.670009
vt 0.307774 0.662390
vt 0.298549 0.693804
vt 0.391041 0.660089
vt 0.378915 0.699685
vt 0.448086 0.661221
vt 0.432571 0.689251
vt 0.535006 0.519963
vt 0.103874 0.531510
vt 0.187072 0.458409
vt 0.254074 0.458054
vt 0.337666 0.504641
vt 0.407149 0.561270
vt 0.471034 0.551342
vt 0.543727 0.480215
vt 0.106649 0.412637
vt 0.197575 0.383295
vt 0.268741 0.378283
vt 0.347100 0.421070
vt 0.408624 0.495151
vt 0.469143 0.462928
vt 0.528826 0.451724
vt 0.320224 0.862208
vt 0.376690 0.883326
vt 0.407829 0.853455
vt 0.394486 0.802432
vt 0.409115 0.469597
vt 0.315507 0.783061
vt 0.028610 0.492484
vt 0.029543 0.451321
vt 0.038909 0.646464
vt 0.472332 0.711391
vt 0.348285 0.398017
vt 0.465466 0.438493
vt 0.038281 0.421964
vt 0.291171 0.820106
vt 0.271290 0.363053
vt 0.196526 0.355580
vt 0.106914 0.400216
vn -0.600327 0.000429 -0.799755
vn 0.245941 -0.142701 -0.958723
vn 0.059441 -0.605093 -0.793932
vn -0.533939 -0.564771 -0.629240
vn 0.848113 -0.225483 -0.479439
vn 0.656404 -0.633830 -0.409138
vn 0.866957 -0.202288 0.455484
vn 0.649900 -0.748383 0.132485
vn 0.218522 -0.219029 0.950933
vn 0.100164 -0.909157 0.404229
vn -0.553174 -0.169223 0.815697
vn -0.463763 -0.795211 0.390594
vn -0.998320 -0.055411 -0.016943
vn -0.826223 -0.549504 -0.124101
vn -0.602793 0.015565 -0.797746
vn 0.257143 0.008515 -0.966336
vn 0.869158 -0.000866 -0.494534
vn 0.890691 -0.062834 0.450247
vn 0.275360 -0.092416 0.956889
vn -0.540703 -0.078889 0.837506
vn -0.999590 -0.028564 0.001940
vn -0.572992 0.059516 -0.817397
vn 0.157907 0.231711 -0.959883
vn 0.749841 0.356045 -0.557648
vn 0.758782 0.220025 0.613057
vn 0.217457 0.050273 0.974774
vn -0.564207 -0.084233 0.821325
vn -0.996802 0.063627 0.048345
vn -0.500545 0.732346 -0.461653
vn -0.394311 0.856776 -0.332346
vn -0.344982 0.910594 -0.227608
vn 0.003938 0.942373 0.334541
vn -0.434288 0.842103 0.319777
vn -0.597040 0.479340 0.643255
vn -0.481922 0.874139 0.060268
s 1
f 43/85/36 44/49/37 37/50/38 36/51/39
f 44/49/37 45/52/40 38/53/41 37/50/38
f 45/52/40 46/54/42 39/55/43 38/53/41
f 46/54/42 47/56/44 40/57/45 39/55/43
f 47/56/44 48/58/46 41/59/47 40/57/45
f 48/58/46 49/60/48 42/61/49 41/59/47
f 49/60/48 43/48/36 36/86/39 42/61/49
f 57/83/50 58/63/51 44/49/37 43/85/36
f 58/63/51 59/64/52 45/52/40 44/49/37
f 59/64/52 60/65/53 46/54/42 45/52/40
f 60/65/53 61/66/54 47/56/44 46/54/42
f 61/66/54 62/67/55 48/58/46 47/56/44
f 62/67/55 63/68/56 49/60/48 48/58/46
f 63/68/56 57/62/50 43/48/36 49/60/48
f 50/84/57 51/70/58 58/63/51 57/83/50
f 51/70/58 52/71/59 59/64/52 58/63/51
f 52/71/59 53/72/60 60/65/53 59/64/52
f 53/72/60 54/73/61 61/66/54 60/65/53
f 54/73/61 55/74/62 62/67/55 61/66/54
f 55/74/62 56/75/63 63/68/56 62/67/55
f 56/75/63 50/69/57 57/62/50 63/68/56
f 64/89/64 65/93/65 51/70/58 50/84/57
f 65/93/65 66/92/66 52/71/59 51/70/58
f 66/92/66 67/91/67 53/72/60 52/71/59
f 67/91/67 68/87/68 54/73/61 53/72/60
f 68/87/68 69/81/69 55/74/62 54/73/61
f 69/81/69 70/88/70 56/75/63 55/74/62
f 70/88/70 64/76/64 50/69/57 56/75/63
f 69/81/69 68/87/68 70/88/70
f 70/82/70 65/77/65 64/90/64
f 68/80/68 66/78/66 65/77/65
f 70/82/70 68/80/68 65/77/65
f 68/80/68 67/79/67 66/78/66
v -67.856909 470.096876 -11.759061
v -156.205321 516.148196 -14.546805
v -103.454530 602.765141 -21.976651
v -172.361087 610.851448 -21.278568
v -156.205321 519.117006 15.142290
v -67.856909 473.062184 17.895204
v -172.361087 613.990352 10.111812
v -103.452050 606.096989 11.344833
v -257.631986 572.281072 -12.078305
v -257.631986 574.089481 6.007107
v -290.484222 663.035622 0.663924
v -290.484222 661.227122 -17.421488
vt 0.691343 0.947165
vt 0.547792 0.765506
vt 0.185869 0.944679
vt 0.015342 0.939562
vt 0.814493 0.982813
vt 0.185537 0.986155
vt 0.271458 0.986289
vt 0.142908 0.841540
vt 0.547823 0.978501
vt 0.346508 0.706245
vt 0.430424 0.959435
vt 0.468971 0.851260
vt 0.271768 0.947216
vt 0.388666 0.765310
vt 0.189721 0.731740
vt 0.430246 0.981946
vt 0.548001 0.955990
vt 0.611810 0.866156
vt 0.691051 0.984119
vt 0.281278 0.804129
vt 0.023196 0.871686
vt 0.104415 0.721474
vt 0.734830 0.876430
vt 0.630330 0.741577
vt 0.814785 0.945902
vt 0.015048 0.976474
vn -0.180258 -0.355846 -0.916995
vn 0.028500 0.185613 -0.982210
vn 0.360123 0.210887 -0.908756
vn 0.515492 -0.334117 -0.789072
vn 0.507119 -0.227807 0.831225
vn 0.371645 0.328451 0.868332
vn 0.032738 0.309962 0.950185
vn -0.172757 -0.232572 0.957113
vn -0.266343 -0.175871 0.947698
vn -0.126507 0.512022 0.849605
vn -0.124873 0.390494 -0.912097
vn -0.273613 -0.294281 -0.915715
s 1
f 72/111/71 74/95/72 73/117/73 71/116/74
f 76/114/75 78/115/76 77/108/77 75/101/78
f 78/99/76 73/96/73 74/106/72 77/100/77
f 75/112/78 72/94/71 71/118/74 76/98/75
f 71/97/74 73/96/73 78/99/76 76/119/75
f 80/102/79 81/109/80 82/104/81 79/110/82
f 75/112/78 80/102/79 79/110/82 72/94/71
f 77/108/77 81/103/80 80/113/79 75/101/78
f 74/106/72 82/104/81 81/109/80 77/100/77
f 72/111/71 79/105/82 82/107/81 74/95/72
v 46.217829 493.090708 -11.392272
v 144.015229 541.132383 -13.132751
v 85.817430 630.647030 -21.576764
v 152.620359 643.614928 -19.957887
v 143.632656 544.058142 16.521405
v 45.835256 496.016557 18.261886
v 151.263398 646.513618 11.011071
v 84.699637 633.806404 11.554157
v 241.267193 613.986760 -10.377116
v 241.033880 615.771108 7.708230
v 270.322865 688.405875 3.780898
v 270.556178 686.621528 -14.304448
vt 0.637230 0.888705
vt 0.552936 0.890291
vt 0.884007 0.740377
vt 0.015551 0.878616
vt 0.652313 0.517520
vt 0.637643 0.929947
vt 0.814977 0.921866
vt 0.150092 0.919077
vt 0.989745 0.526227
vt 0.397303 0.921498
vt 0.555724 0.450438
vt 0.300520 0.894448
vt 0.397539 0.898989
vt 0.861686 0.614684
vt 0.606658 0.367741
vt 0.553714 0.928845
vt 0.150478 0.882169
vt 0.977789 0.622613
vt 0.300285 0.916957
vt 0.555724 0.600646
vt 0.579833 0.733449
vt 0.688641 0.593188
vt 0.782187 0.828981
vt 0.785730 0.651274
vt 0.015165 0.915524
vt 0.814933 0.884956
vn -0.322675 0.179713 -0.929292
vn -0.020193 0.190208 -0.981536
vn 0.213634 -0.358639 -0.908702
vn -0.472861 -0.339350 -0.813169
vn -0.049295 0.312242 0.948723
vn -0.365307 0.299450 0.881408
vn -0.490186 -0.231991 0.840177
vn 0.180399 -0.235241 0.955049
vn 0.116790 0.417046 -0.901351
vn 0.094987 0.536003 0.838855
vn 0.257971 -0.157589 0.953214
vn 0.291012 -0.275992 -0.916046
s 1
f 85/143/83 86/133/84 84/122/85 83/142/86
f 89/124/87 90/141/88 88/140/89 87/139/90
f 86/121/84 85/120/83 90/125/88 89/135/87
f 83/123/86 84/136/85 87/127/90 88/144/89
f 90/125/88 85/120/83 83/145/86 88/126/89
f 94/132/91 93/129/92 92/138/93 91/131/94
f 91/131/94 92/138/93 87/127/90 84/136/85
f 92/130/93 93/134/92 89/124/87 87/139/90
f 93/129/92 94/132/91 86/121/84 89/135/87
f 94/128/91 91/137/94 84/122/85 86/133/84
v -54.188041 410.421342 -43.743231
v -2.655889 427.832512 -54.650461
v 40.987951 453.912725 -25.874721
v 42.426388 467.138750 28.574110
v -1.019049 432.500465 62.931391
v -49.349047 413.452417 44.828496
v -61.933625 419.399464 2.412003
v -60.506997 430.993458 -59.370267
v 0.804160 455.313161 -74.435001
v 51.409967 478.457200 -32.499208
v 59.614701 480.366615 35.016231
v -16.281196 461.849049 76.666230
v -61.959925 459.340961 60.543696
v -88.485789 448.529246 0.892353
v -51.722820 646.068653 -60.831002
v 5.551249 633.070857 -71.292121
v 51.476511 653.528185 -37.103536
v 49.846206 666.099377 19.268233
v -5.421723 650.369394 52.263389
v -51.052560 653.900694 43.922778
v -76.934433 658.938643 -8.817723
v -59.152076 566.193425 -60.340519
v 5.411334 562.210022 -71.973538
v 61.508769 582.872190 -36.520074
v 54.424498 547.672223 30.167439
v -55.809347 553.911783 54.763247
v -81.872747 593.621685 -4.718809
v -33.863676 659.310165 -41.646934
v -0.062404 647.281262 -48.077941
v 27.018319 650.270767 -26.189577
v 30.073588 661.586928 8.607652
v -0.386079 663.639233 29.340889
v -32.962962 669.773657 21.889491
v -50.540726 654.447922 -8.547957
v 20.421945 554.161738 53.752690
v -11.424181 526.994029 75.523845
v -33.633286 561.706249 63.916575
v -6.864432 602.625170 65.192517
v -11.015357 534.098334 118.848370
v -8.697014 577.099097 109.195783
v -10.868524 537.225206 92.692256
v 4.268573 549.548822 95.514806
v -23.460022 555.381889 92.397288
vt 0.908845 0.226962
vt 0.918296 0.159962
vt 0.945236 0.187851
vt 0.930616 0.236830
vt 0.961888 0.096579
vt 0.991439 0.466245
vt 0.908490 0.472263
vt 0.927793 0.455032
vt 0.874859 0.391797
vt 0.909484 0.387113
vt 0.866138 0.345318
vt 0.916399 0.339526
vt 0.891599 0.283525
vt 0.953832 0.299854
vt 0.757756 0.190958
vt 0.800490 0.108696
vt 0.815409 0.022622
vt 0.833738 0.512067
vt 0.798725 0.465510
vt 0.677719 0.707951
vt 0.743862 0.739213
vt 0.640034 0.725063
vt 0.764653 0.360839
vt 0.713022 0.275069
vt 0.917302 0.771270
vt 0.845838 0.795656
vt 0.823708 0.868220
vt 0.689861 0.567076
vt 0.643662 0.378212
vt 0.982440 0.808058
vt 0.954888 0.826616
vt 0.952673 0.872940
vt 0.923957 0.903474
vt 0.877829 0.902122
vt 0.856397 0.861166
vt 0.870351 0.819864
vt 0.913215 0.807477
vt 0.948640 0.927489
vt 0.725736 0.441679
vt 0.763422 0.394352
vt 0.703796 0.744965
vt 0.742591 0.712147
vt 0.712499 0.698569
vt 0.633730 0.273880
vt 0.660455 0.173899
vt 0.991150 0.882663
vt 0.671485 0.461672
vt 0.864853 0.927489
vt 0.717626 0.001569
vt 0.707914 0.084391
vt 0.991439 0.135122
vt 0.742536 0.633391
vt 0.838215 0.602491
vt 0.974788 0.511813
vt 0.646114 0.661251
vt 0.720542 0.638376
vt 0.812179 0.413467
vt 0.771111 0.686145
vt 0.666343 0.728934
vt 0.770050 0.744965
vn -0.653221 -0.114360 -0.748481
vn 0.155775 -0.104402 -0.982260
vn 0.415551 -0.890361 -0.185942
vn -0.045492 -0.994744 -0.091729
vn 0.852575 -0.130980 -0.505925
vn 0.591196 -0.805198 -0.046303
vn 0.908618 -0.105538 0.404072
vn 0.611514 -0.759426 0.222085
vn 0.085941 -0.125315 0.988388
vn 0.446817 -0.857111 0.256351
vn -0.776431 -0.076589 0.625531
vn -0.031645 -0.981743 0.187563
vn -0.998040 -0.057673 -0.024303
vn -0.157360 -0.982319 0.101431
vn -0.657603 0.022705 -0.753022
vn 0.204578 -0.004873 -0.978838
vn 0.910650 0.020781 -0.412655
vn 0.938342 0.048667 0.342265
vn 0.599381 0.082961 0.796153
vn 0.934141 0.061386 0.351586
vn -0.035409 -0.962087 0.270435
vn 0.152409 -0.063860 0.986252
vn -0.823422 0.088015 0.560562
vn -0.997935 0.064137 0.003342
vn -0.565096 0.215494 -0.796385
vn 0.193576 0.161727 -0.967663
vn 0.906196 0.227291 -0.356578
vn 0.878926 0.258533 0.400812
vn -0.724423 0.303670 0.618866
vn -0.962627 0.269853 0.022982
vn -0.018506 0.986862 -0.160505
vn 0.010039 0.998155 -0.059880
vn 0.049080 0.997919 -0.041819
vn 0.017922 0.988724 -0.148673
vn 0.018293 0.973045 -0.229887
vn 0.059574 0.955888 -0.287625
vn 0.046686 0.964645 -0.259383
vn 0.157922 0.519178 0.839949
vn 0.284290 0.259443 0.922967
vn -0.478719 0.145514 0.865826
vn -0.090482 -0.206896 0.974170
vn -0.929695 0.167004 0.328293
vn 0.269226 0.679820 0.682175
s 1
f 102/146/95 103/147/96 96/148/97 95/149/98
f 103/147/96 104/150/99 97/196/100 96/148/97
f 104/199/99 105/152/101 98/153/102 97/151/100
f 105/152/101 106/154/103 99/155/104 98/153/102
f 106/154/103 107/156/105 100/157/106 99/155/104
f 107/156/105 108/158/107 101/159/108 100/157/106
f 108/158/107 102/146/95 95/149/98 101/159/108
f 116/160/109 117/161/110 103/147/96 102/146/95
f 117/161/110 118/162/111 104/150/99 103/147/96
f 118/198/111 119/163/112 105/152/101 104/199/99
f 129/200/113 136/165/114 135/204/115 130/167/116
f 120/168/117 121/169/118 108/158/107 107/156/105
f 121/169/118 116/160/109 102/146/95 108/158/107
f 109/190/119 110/195/120 117/161/110 116/160/109
f 110/195/120 111/194/121 118/162/111 117/161/110
f 111/197/121 112/173/122 119/163/112 118/198/111
f 114/174/123 115/189/124 121/169/118 120/168/117
f 115/189/124 109/190/119 116/160/109 121/169/118
f 128/176/125 127/177/126 126/178/127 125/179/128 124/180/129 123/181/130 122/182/131
f 122/182/131 123/181/130 110/171/120 109/170/119
f 123/181/130 124/180/129 111/172/121 110/171/120
f 124/180/129 125/179/128 112/193/122 111/172/121
f 125/179/128 126/178/127 113/183/132 112/193/122
f 126/178/127 127/177/126 114/191/123 113/183/132
f 127/177/126 128/176/125 115/175/124 114/191/123
f 128/176/125 122/182/131 109/170/119 115/175/124
f 113/192/132 114/174/123 132/184/133
f 130/202/116 131/185/134 107/156/105 106/154/103
f 105/152/101 129/164/113 130/202/116 106/154/103
f 112/173/122 113/192/132 132/184/133
f 133/186/135 137/187/136 135/166/115
f 132/201/133 134/188/137 136/165/114 129/200/113
f 132/201/133 131/203/134 137/187/136 134/188/137
f 135/204/115 136/165/114 133/186/135
f 135/166/115 137/187/136 131/203/134 130/205/116
f 136/165/114 134/188/137 133/186/135
f 134/188/137 137/187/136 133/186/135
f 107/156/105 131/185/134 120/168/117
f 132/184/133 114/174/123 120/168/117 131/185/134
f 112/173/122 132/184/133 129/164/113 119/163/112
f 119/163/112 129/164/113 105/152/101
f 101/159/108 97/151/100 98/153/102
f 101/159/108 98/153/102 99/155/104 100/157/106
f 95/149/98 96/148/97 97/196/100 101/159/108
