# File exported by Houdini 21.0.440 (www.sidefx.com)
# 137 points
# 504 vertices
# 130 primitives
# Bounds: [-290.484222, -2.00000191, -86.7054596] to [270.556183, 688.405884, 118.848373]
g 
v -67.8569107 470.096863 -11.7590609
v -156.205322 516.148193 -14.5468054
v -103.454529 602.765137 -21.9766502
v -172.361084 610.85144 -21.2785683
v -156.205322 519.117004 15.1422901
v -67.8569107 473.062195 17.8952045
v -172.361084 613.990356 10.1118116
v -103.452049 606.096985 11.3448334
v -257.631989 572.281067 -12.0783052
v -257.631989 574.089478 6.00710678
v -290.484222 663.035645 0.663923979
v -290.484222 661.227112 -17.4214878
v 46.2178307 493.090698 -11.392272
v 144.015228 541.132385 -13.1327515
v 85.8174286 630.647034 -21.5767632
v 152.620361 643.614929 -19.9578876
v 143.63266 544.058167 16.5214043
v 45.8352547 496.016571 18.2618866
v 151.263397 646.513611 11.0110712
v 84.6996384 633.806396 11.5541573
v 241.267197 613.986755 -10.3771162
v 241.033875 615.771118 7.70823002
v 270.322876 688.405884 3.78089809
v 270.556183 686.621521 -14.3044481
v -54.1880417 410.421356 -43.7432327
v -2.65588903 427.83252 -54.6504593
v 40.9879494 453.91272 -25.8747215
v 42.4263878 467.138763 28.57411
v -1.01904905 432.500458 62.9313927
v -49.3490486 413.452423 44.828495
v -61.9336243 419.399475 2.41200304
v -60.5069962 430.993469 -59.370266
v 0.804159999 455.313171 -74.4349976
v 51.4099655 478.457214 -32.4992065
v 59.6147003 480.366608 35.0162315
v -16.2811966 461.84906 76.6662292
v -61.9599266 459.340973 60.5436974
v -88.4857864 448.529236 0.892352998
v -51.7228203 646.068665 -60.8310013
v 5.55124903 633.070862 -71.2921219
v 51.4765091 653.528198 -37.1035347
v 49.8462067 666.099365 19.2682323
v -5.42172289 650.369385 52.2633896
v -51.0525589 653.900696 43.9227791
v -76.934433 658.93866 -8.81772327
v -59.1520767 566.19342 -60.340519
v 5.41133404 562.210022 -71.9735413
v 61.50877 582.872192 -36.5200729
v 54.4244995 547.672241 30.1674385
v -55.8093452 553.911804 54.7632484
v -81.8727493 593.621704 -4.71880913
v -33.8636742 659.310181 -41.6469345
v -0.0624039993 647.28125 -48.0779419
v 27.0183182 650.270752 -26.1895771
v 30.0735874 661.586914 8.60765171
v -0.386079013 663.639221 29.340889
v -32.9629631 669.773682 21.8894901
v -50.5407257 654.447937 -8.54795742
v 20.4219456 554.161743 53.7526894
v -11.424181 526.994019 75.5238419
v -33.6332855 561.706238 63.9165764
v -6.86443186 602.625183 65.1925201
v -11.015357 534.098328 118.848373
v -8.69701385 577.099121 109.195786
v -10.8685236 537.22522 92.6922531
v 4.26857281 549.548828 95.5148087
v -23.460022 555.381897 92.3972855
v -37.0636673 234.700424 -38.5443001
v 3.13795996 203.177139 -41.1389503
v 31.5932579 214.91124 -21.7577591
v 35.2146378 233.375809 8.18664074
v 12.4736223 213.540802 21.9953918
v -37.3767853 219.3974 18.4543953
v -50.8607483 235.656387 -7.59632206
v -53.540554 266.17688 -58.7902794
v 8.7316637 239.74588 -63.7518311
v 44.7339363 233.904175 -29.1870613
v 53.6117325 245.915726 20.0518856
v 16.9430771 224.756866 51.6855469
v -52.5925636 242.081207 38.3681755
v -63.2402611 256.74295 -6.02075195
v -47.0824318 394.631531 -49.1401062
v 10.3923054 431.108124 -53.8891754
v 66.7009201 462.25415 -20.4648552
v 60.6024666 464.264984 35.247036
v 9.44930267 430.252106 70.8348083
v -45.2045174 376.600098 52.8358459
v -77.3405762 409.718842 7.08111906
v -41.8306427 368.240051 -41.8949661
v 14.6209898 342.265533 -66.0111923
v 83.6660919 400.363098 -30.0905418
v 79.0467758 398.608917 27.7840023
v 13.3573179 362.818359 61.4388809
v -43.9548836 323.203033 43.6807327
v -61.9326973 340.748871 0.878589988
v -41.1420097 410.95047 -36.3119049
v 8.36296654 434.695892 -44.5587234
v 49.0364685 476.547394 -14.9647779
v 50.1233635 472.949585 31.7182331
v 8.36856937 444.348938 58.4621925
v -39.1653328 394.723267 46.1353607
v -59.5680809 422.011108 6.73031092
v -79.2578354 218.133194 5.80000014e-05
v -53.1902542 226.465073 53.5682793
v 19.2323265 216.033722 63.7102356
v 70.9500504 242.546021 30.5350266
v 69.5225983 213.65358 -25.0081921
v 13.8623762 205.577377 -62.943943
v -45.3810387 220.87323 -62.2828217
v -101.112617 118.659248 5.80000014e-05
v -40.5207062 118.659248 60.4714622
v 17.5767822 118.659248 54.0388222
v 46.9648132 118.659248 28.0434761
v 77.1687698 118.659248 -24.1859016
v 12.467144 118.659248 -86.7054596
v -69.3492432 118.659248 -70.3809433
v -92.0210419 14.10184 5.80000014e-05
v -52.2071266 14.10184 63.3596077
v 18.0330772 14.10184 79.0081253
v 73.0144424 14.10184 35.1619415
v 73.0144272 14.10184 -35.1618423
v 16.3535099 14.10184 -79.0080109
v -61.508709 14.10184 -63.359478
v -31.8632355 239.330063 -37.5433731
v 12.4772968 208.427063 -38.5912209
v 47.7420502 223.819824 -16.0912991
v 52.9979591 250.550262 18.6411648
v 12.5983505 230.587952 37.2335663
v -32.5547752 229.370605 33.1528282
v -48.5227203 246.03714 5.60000008e-05
v -59.6383781 -2.00000191 5.60000008e-05
v -34.6220284 -2.00000191 40.4340553
v 11.5081196 -2.00000191 50.4204216
v 46.5954285 -2.00000191 22.4392262
v 46.595417 -2.00000191 -22.4391136
v 9.13113117 -2.00000191 -50.4203072
v -40.1664047 -2.00000191 -40.4339294
vt 0.611810029 0.866155982 0
vt 0.547792017 0.765506029 0
vt 0.630330026 0.741577029 0
vt 0.734830022 0.876429975 0
vt 0.0231960006 0.871685982 0
vt 0.104414999 0.721473992 0
vt 0.189721003 0.731739998 0
vt 0.142908007 0.841539979 0
vt 0.185536996 0.986154974 0
vt 0.185868993 0.944679022 0
vt 0.271768004 0.947215974 0
vt 0.271458 0.986289024 0
vt 0.691051006 0.984118998 0
vt 0.691343009 0.947165012 0
vt 0.814785004 0.94590199 0
vt 0.814493001 0.982813001 0
vt 0.0153419999 0.939562023 0
vt 0.015048 0.976473987 0
vt 0.547823012 0.978501022 0
vt 0.430245996 0.981945992 0
vt 0.430424005 0.959434986 0
vt 0.548000991 0.955990016 0
vt 0.346507996 0.706245005 0
vt 0.281278014 0.804129004 0
vt 0.468971014 0.851260006 0
vt 0.388666004 0.765309989 0
vt 0.785730004 0.651274025 0
vt 0.861685991 0.614683986 0
vt 0.884006977 0.740377009 0
vt 0.782186985 0.828980982 0
vt 0.652312994 0.51752001 0
vt 0.688641012 0.593187988 0
vt 0.579832971 0.733448982 0
vt 0.555724025 0.600646019 0
vt 0.552936018 0.890290976 0
vt 0.637229979 0.888705015 0
vt 0.63764298 0.929947019 0
vt 0.553713977 0.928844988 0
vt 0.0155509999 0.878615975 0
vt 0.150478005 0.882169008 0
vt 0.150092006 0.919076979 0
vt 0.0151650002 0.915524006 0
vt 0.814933002 0.884956002 0
vt 0.81497699 0.921866 0
vt 0.39753899 0.898989022 0
vt 0.397302985 0.921498001 0
vt 0.300285012 0.916957021 0
vt 0.300520003 0.894447982 0
vt 0.555724025 0.450437993 0
vt 0.606657982 0.367740989 0
vt 0.989745021 0.526226997 0
vt 0.977788985 0.622613013 0
vt 0.908845007 0.226962 0
vt 0.918295979 0.159961998 0
vt 0.945236027 0.187850997 0
vt 0.930616021 0.236829996 0
vt 0.961888015 0.0965790004 0
vt 0.991438985 0.135122001 0
vt 0.97478801 0.511812985 0
vt 0.908490002 0.472263008 0
vt 0.927793026 0.455031991 0
vt 0.991438985 0.466244996 0
vt 0.874858975 0.391797006 0
vt 0.909484029 0.387113005 0
vt 0.866137981 0.34531799 0
vt 0.916399002 0.339525998 0
vt 0.891599 0.28352499 0
vt 0.953831971 0.29985401 0
vt 0.757755995 0.190957993 0
vt 0.800490022 0.108695999 0
vt 0.815409005 0.0226220004 0
vt 0.838214993 0.602491021 0
vt 0.833738029 0.51206702 0
vt 0.646113992 0.661251009 0
vt 0.677718997 0.707951009 0
vt 0.666342974 0.72893399 0
vt 0.64003402 0.725063026 0
vt 0.764653027 0.360839009 0
vt 0.713021994 0.275068998 0
vt 0.660454988 0.173898995 0
vt 0.707913995 0.0843909979 0
vt 0.717625976 0.00156899996 0
vt 0.742536008 0.633391023 0
vt 0.689861 0.567076027 0
vt 0.643661976 0.378212005 0
vt 0.633729994 0.273880005 0
vt 0.954887986 0.826615989 0
vt 0.952673018 0.872940004 0
vt 0.92395699 0.903473973 0
vt 0.877829015 0.902122021 0
vt 0.856396973 0.861166 0
vt 0.870351017 0.819863975 0
vt 0.913214982 0.807476997 0
vt 0.84583801 0.795656025 0
vt 0.917302012 0.771269977 0
vt 0.823707998 0.868219972 0
vt 0.864853024 0.927488983 0
vt 0.948639989 0.927488983 0
vt 0.991150022 0.882663012 0
vt 0.982439995 0.808058023 0
vt 0.671485007 0.461672008 0
vt 0.725736022 0.441679001 0
vt 0.812179029 0.41346699 0
vt 0.763422012 0.394351989 0
vt 0.798725009 0.465510011 0
vt 0.703796029 0.744965017 0
vt 0.742591023 0.712146997 0
vt 0.743861973 0.73921299 0
vt 0.720542014 0.638375998 0
vt 0.712499022 0.698569 0
vt 0.771111012 0.686145008 0
vt 0.770049989 0.744965017 0
vt 0.0389089994 0.64646399 0
vt 0.125925004 0.660461009 0
vt 0.146812007 0.711390972 0
vt 0.0741019994 0.695427001 0
vt 0.189026996 0.660036981 0
vt 0.192269996 0.688197017 0
vt 0.250808001 0.639385998 0
vt 0.245711997 0.670009017 0
vt 0.307774007 0.662389994 0
vt 0.298548996 0.693804026 0
vt 0.391041011 0.660089016 0
vt 0.378915012 0.699684978 0
vt 0.448085994 0.661221027 0
vt 0.432570994 0.689251006 0
vt 0.516390026 0.671539009 0
vt 0.472332001 0.711390972 0
vt 0.0286100004 0.492484003 0
vt 0.103873998 0.531509995 0
vt 0.187071994 0.458409011 0
vt 0.254074007 0.458054006 0
vt 0.337666005 0.504640996 0
vt 0.407148987 0.561269999 0
vt 0.47103399 0.55134201 0
vt 0.535005987 0.519963026 0
vt 0.0295429993 0.451321006 0
vt 0.106648996 0.412636995 0
vt 0.197575003 0.383295 0
vt 0.268741012 0.378282994 0
vt 0.34709999 0.421070009 0
vt 0.408623993 0.495151013 0
vt 0.469143003 0.462927997 0
vt 0.543726981 0.480215013 0
vt 0.0382810012 0.42196399 0
vt 0.106913999 0.400216013 0
vt 0.196526006 0.355580002 0
vt 0.271290004 0.363052994 0
vt 0.34828499 0.398016989 0
vt 0.409114987 0.469597012 0
vt 0.465465993 0.438493013 0
vt 0.528825998 0.451723993 0
vt 0.315506995 0.783061028 0
vt 0.320223987 0.862208009 0
vt 0.291171014 0.82010603 0
vt 0.39448601 0.802432001 0
vt 0.37669 0.883325994 0
vt 0.407828987 0.853455007 0
vt 0.101043999 0.189146996 0
vt 0.207101002 0.190869004 0
vt 0.190555006 0.318165988 0
vt 0.118607 0.312682003 0
vt 0.282902002 0.191845998 0
vt 0.276472002 0.312096 0
vt 0.33416301 0.190624997 0
vt 0.347397 0.335561991 0
vt 0.412032008 0.190648004 0
vt 0.412156999 0.305007994 0
vt 0.522992015 0.190175995 0
vt 0.499659002 0.304747999 0
vt 0.622420013 0.187674999 0
vt 0.57289201 0.333898008 0
vt 0.00104600005 0.192046002 0
vt 0.0427770019 0.345975012 0
vt 0.111380003 0.062628001 0
vt 0.196393996 0.0623789988 0
vt 0.272965997 0.0630329996 0
vt 0.347135007 0.0634709969 0
vt 0.422711015 0.0641700029 0
vt 0.501111984 0.0597390011 0
vt 0.595669985 0.0353720002 0
vt 0.0372850001 0.0367360003 0
vt 0.542349994 0.368636012 0
vt 0.480980009 0.332195997 0
vt 0.414169014 0.335987985 0
vt 0.348329991 0.356848001 0
vt 0.273310006 0.349759012 0
vt 0.201810002 0.347418994 0
vt 0.138757005 0.361393988 0
vt 0.0828839988 0.375629991 0
vt 0.128580004 0.0215230007 0
vt 0.201784 0.0277469996 0
vt 0.275366008 0.0258380007 0
vt 0.346953005 0.0254779998 0
vt 0.418442011 0.0235319994 0
vt 0.490334988 0.0233190004 0
vt 0.555612028 0.00162600004 0
vt 0.0735599995 0.00162600004 0
vt 0.449625999 0.340139002 0
vt 0.491037011 0.356866986 0
vt 0.455150008 0.425886989 0
vt 0.413724005 0.357270986 0
vt 0.409767985 0.398063004 0
vt 0.498598993 0.419656008 0
vt 0.527931988 0.387576997 0
vn 0.515492022 -0.334116995 -0.789071977
vn -0.180258006 -0.355845988 -0.916994989
vn 0.360123008 0.210887 -0.908756018
vn 0.0285 0.185613006 -0.98220998
vn -0.172757 -0.232572004 0.957113028
vn 0.507119 -0.227807 0.831224978
vn 0.0327380002 0.309962004 0.950185001
vn 0.371645004 0.328451008 0.868332028
vn -0.273613006 -0.294281006 -0.915714979
vn -0.266342998 -0.175871 0.947697997
vn -0.126506999 0.512022018 0.849605024
vn -0.124872997 0.390493989 -0.912096977
vn -0.472860992 -0.339349985 -0.813169003
vn 0.213633999 -0.358639002 -0.908702016
vn -0.32267499 0.179712996 -0.929292023
vn -0.0201929994 0.190208003 -0.981535971
vn 0.180399001 -0.235240996 0.955048978
vn -0.490186006 -0.231990993 0.840177
vn -0.0492950007 0.312242001 0.948723018
vn -0.365307003 0.29945001 0.881407976
vn 0.291011989 -0.275992006 -0.916046023
vn 0.257970989 -0.157589003 0.95321399
vn 0.0949869975 0.536002994 0.838855028
vn 0.116789997 0.41704601 -0.901350975
vn -0.0454920009 -0.994744003 -0.0917290002
vn 0.415551007 -0.890361011 -0.185941994
vn 0.591196001 -0.805198014 -0.0463030003
vn 0.611513972 -0.759425998 0.222084999
vn 0.446817011 -0.857110977 0.256350994
vn -0.031645 -0.981742978 0.187563002
vn -0.157360002 -0.982318997 0.101430997
vn -0.653221011 -0.114359997 -0.748480976
vn 0.155774996 -0.104401998 -0.982259989
vn 0.852575004 -0.13098 -0.505925
vn 0.908617973 -0.105538003 0.404071987
vn 0.0859410018 -0.125314996 0.988388002
vn -0.776431024 -0.0765890032 0.625531018
vn -0.99804002 -0.0576729998 -0.0243030004
vn -0.565096021 0.215494007 -0.79638499
vn 0.193575993 0.161726996 -0.96766299
vn 0.906195998 0.227291003 -0.356577992
vn 0.878925979 0.258533001 0.400812
vn 0.157922 0.519177973 0.839949012
vn -0.724422991 0.303669989 0.618866026
vn -0.962626994 0.269852996 0.0229819994
vn -0.657603025 0.0227049999 -0.753022015
vn 0.204577997 -0.00487300009 -0.978838027
vn 0.910650015 0.0207809992 -0.412654996
vn 0.938341975 0.0486669987 0.34226501
vn -0.823422015 0.0880149975 0.560562015
vn -0.997934997 0.0641369969 0.00334200007
vn 0.0466860011 0.964645028 -0.259382993
vn 0.0595740005 0.955887973 -0.287625015
vn 0.0182930008 0.973044991 -0.229886994
vn 0.0179219991 0.988723993 -0.148672998
vn 0.0490799993 0.997919023 -0.0418189988
vn 0.0100389998 0.998154998 -0.0598799996
vn -0.0185059998 0.986862004 -0.160504997
vn 0.59938103 0.0829610005 0.796153009
vn 0.152409002 -0.0638599992 0.98625201
vn -0.478718996 0.145513996 0.865826011
vn 0.284289986 0.259443015 0.922967017
vn -0.0904819965 -0.206896007 0.974170029
vn 0.269226015 0.679820001 0.682174981
vn -0.0354089998 -0.962086976 0.270435005
vn 0.93414098 0.0613860004 0.351586014
vn -0.92969501 0.167004004 0.328292996
vn -0.533939004 -0.564770997 -0.629239976
vn 0.0594410002 -0.605093002 -0.793932021
vn 0.656404018 -0.633830011 -0.409137994
vn 0.649900019 -0.748382986 0.132485002
vn 0.100164004 -0.909156978 0.404228985
vn -0.463762999 -0.795211017 0.390594006
vn -0.826223016 -0.549503982 -0.124100998
vn -0.600327015 0.000429000007 -0.799754977
vn 0.245940998 -0.142701 -0.958723009
vn 0.848113 -0.225483 -0.47943899
vn 0.866957009 -0.202288002 0.455484003
vn 0.218521997 -0.219028994 0.95093298
vn -0.553174019 -0.169222996 0.815697014
vn -0.998319983 -0.0554109998 -0.0169430003
vn -0.572992027 0.0595160015 -0.817396998
vn 0.157906994 0.231711 -0.959882975
vn 0.749840975 0.356045008 -0.557648003
vn 0.758782029 0.220025003 0.613057017
vn 0.217456996 0.0502730012 0.974774003
vn -0.564207017 -0.0842330009 0.821325004
vn -0.996801972 0.0636269972 0.0483449996
vn -0.602792978 0.0155649995 -0.797746003
vn 0.257142991 0.00851500034 -0.966336012
vn 0.86915803 -0.000866000017 -0.494533986
vn 0.890690982 -0.0628340021 0.45024699
vn 0.275359988 -0.0924160033 0.956888974
vn -0.540702999 -0.0788889974 0.837505996
vn -0.99958998 -0.0285640005 0.00193999999
vn -0.500545025 0.732345998 -0.461652994
vn -0.394311011 0.856775999 -0.332345992
vn -0.344981998 0.910593987 -0.227607995
vn 0.00393800018 0.942372978 0.334540993
vn -0.434287995 0.842103004 0.319777012
vn -0.597039998 0.479339987 0.643254995
vn -0.481922001 0.874139011 0.0602679998
vn -0.960002005 0.267105997 0.0839670002
vn -0.519523978 0.174981996 0.836346984
vn 0.26859501 0.0821570009 0.959743023
vn 0.83603102 0.107334003 0.53808099
vn 0.939067006 0.129729003 -0.318314999
vn 0.313863009 0.26246199 -0.912470996
vn -0.517062008 0.339017987 -0.785947978
vn -0.992323995 0.0564329997 0.110041
vn -0.458882004 0.0529900007 0.886915982
vn 0.290719002 0.0599870011 0.954926014
vn 0.834535003 0.032740999 0.549982011
vn 0.942211986 0.0484789982 -0.33149299
vn 0.250943989 0.0491040014 -0.966754973
vn -0.617524981 0.0547210015 -0.784645975
vn -0.972760975 -0.186110005 0.138202995
vn -0.527725995 -0.0996339992 0.84355098
vn 0.254869998 -0.0334709994 0.966395974
vn 0.867900014 -0.053160999 0.49388501
vn 0.903245986 -0.110705003 -0.414597988
vn 0.264851987 -0.177634999 -0.947785974
vn -0.578866005 -0.232006997 -0.781719983
vn -0.0513320006 0.946166992 -0.319582999
vn 0.163589001 0.936182976 -0.311125994
vn -0.0193959996 0.911387026 -0.411092997
vn -0.0686580017 0.995221019 -0.0694369972
vn -0.0913399979 0.986365974 0.136894003
vn -0.00290800002 0.982505977 0.186205998
vn -0.175518006 0.984471023 -0.00314799999
vn -0.446267009 -0.894102991 0.0377559997
vn -0.278569013 -0.874777019 0.396438986
vn 0.105944 -0.875869989 0.470773011
vn 0.433661014 -0.876541018 0.208839998
vn 0.426174998 -0.878382981 -0.216376007
vn 0.0959570035 -0.875899017 -0.472855985
vn -0.264474005 -0.887382984 -0.377629995
g TotemTop
f 2/1/2 4/2/4 3/3/3 1/4/1
f 6/5/6 8/6/8 7/7/7 5/8/5
f 8/9/8 3/10/3 4/11/4 7/12/7
f 5/13/5 2/14/2 1/15/1 6/16/6
f 1/17/1 3/10/3 8/9/8 6/18/6
f 10/19/10 11/20/11 12/21/12 9/22/9
f 5/13/5 10/19/10 9/22/9 2/14/2
f 7/7/7 11/23/11 10/24/10 5/8/5
f 4/11/4 12/21/12 11/20/11 7/12/7
f 2/1/2 9/25/9 12/26/12 4/2/4
f 15/27/15 16/28/16 14/29/14 13/30/13
f 19/31/19 20/32/20 18/33/18 17/34/17
f 16/35/16 15/36/15 20/37/20 19/38/19
f 13/39/13 14/40/14 17/41/17 18/42/18
f 20/37/20 15/36/15 13/43/13 18/44/18
f 24/45/24 23/46/23 22/47/22 21/48/21
f 21/48/21 22/47/22 17/41/17 14/40/14
f 22/49/22 23/50/23 19/31/19 17/34/17
f 23/46/23 24/45/24 16/35/16 19/38/19
f 24/51/24 21/52/21 14/29/14 16/28/16
f 32/53/32 33/54/33 26/55/26 25/56/25
f 33/54/33 34/57/34 27/58/27 26/55/26
f 34/59/34 35/60/35 28/61/28 27/62/27
f 35/60/35 36/63/36 29/64/29 28/61/28
f 36/63/36 37/65/37 30/66/30 29/64/29
f 37/65/37 38/67/38 31/68/31 30/66/30
f 38/67/38 32/53/32 25/56/25 31/68/31
f 46/69/46 47/70/47 33/54/33 32/53/32
f 47/70/47 48/71/48 34/57/34 33/54/33
f 48/72/48 49/73/49 35/60/35 34/59/34
f 59/74/59 66/75/66 65/76/65 60/77/60
f 50/78/50 51/79/51 38/67/38 37/65/37
f 51/79/51 46/69/46 32/53/32 38/67/38
f 39/80/39 40/81/40 47/70/47 46/69/46
f 40/81/40 41/82/41 48/71/48 47/70/47
f 41/83/41 42/84/42 49/73/49 48/72/48
f 44/85/44 45/86/45 51/79/51 50/78/50
f 45/86/45 39/80/39 46/69/46 51/79/51
f 58/87/58 57/88/57 56/89/56 55/90/55 54/91/54 53/92/53 52/93/52
f 52/93/52 53/92/53 40/94/40 39/95/39
f 53/92/53 54/91/54 41/96/41 40/94/40
f 54/91/54 55/90/55 42/97/42 41/96/41
f 55/90/55 56/89/56 43/98/43 42/97/42
f 56/89/56 57/88/57 44/99/44 43/98/43
f 57/88/57 58/87/58 45/100/45 44/99/44
f 58/87/58 52/93/52 39/95/39 45/100/45
f 43/101/43 44/85/44 62/102/62
f 60/103/60 61/104/61 37/65/37 36/63/36
f 35/60/35 59/105/59 60/103/60 36/63/36
f 42/84/42 43/101/43 62/102/62
f 63/106/63 67/107/67 65/108/65
f 62/109/62 64/110/64 66/75/66 59/74/59
f 62/109/62 61/111/61 67/107/67 64/110/64
f 65/76/65 66/75/66 63/106/63
f 65/108/65 67/107/67 61/111/61 60/112/60
f 66/75/66 64/110/64 63/106/63
f 64/110/64 67/107/67 63/106/63
f 37/65/37 61/104/61 50/78/50
f 62/102/62 44/85/44 50/78/50 61/104/61
f 42/84/42 62/102/62 59/105/59 49/73/49
f 49/73/49 59/105/59 35/60/35
f 31/68/31 27/62/27 28/61/28
f 31/68/31 28/61/28 29/64/29 30/66/30
f 25/56/25 26/55/26 27/58/27 31/68/31
g TotemMiddle
f 75/113/75 76/114/76 69/115/69 68/116/68
f 76/114/76 77/117/77 70/118/70 69/115/69
f 77/117/77 78/119/78 71/120/71 70/118/70
f 78/119/78 79/121/79 72/122/72 71/120/71
f 79/121/79 80/123/80 73/124/73 72/122/72
f 80/123/80 81/125/81 74/126/74 73/124/73
f 81/125/81 75/127/75 68/128/68 74/126/74
f 89/129/89 90/130/90 76/114/76 75/113/75
f 90/130/90 91/131/91 77/117/77 76/114/76
f 91/131/91 92/132/92 78/119/78 77/117/77
f 92/132/92 93/133/93 79/121/79 78/119/78
f 93/133/93 94/134/94 80/123/80 79/121/79
f 94/134/94 95/135/95 81/125/81 80/123/80
f 95/135/95 89/136/89 75/127/75 81/125/81
f 82/137/82 83/138/83 90/130/90 89/129/89
f 83/138/83 84/139/84 91/131/91 90/130/90
f 84/139/84 85/140/85 92/132/92 91/131/91
f 85/140/85 86/141/86 93/133/93 92/132/92
f 86/141/86 87/142/87 94/134/94 93/133/93
f 87/142/87 88/143/88 95/135/95 94/134/94
f 88/143/88 82/144/82 89/136/89 95/135/95
f 96/145/96 97/146/97 83/138/83 82/137/82
f 97/146/97 98/147/98 84/139/84 83/138/83
f 98/147/98 99/148/99 85/140/85 84/139/84
f 99/148/99 100/149/100 86/141/86 85/140/85
f 100/149/100 101/150/101 87/142/87 86/141/86
f 101/150/101 102/151/102 88/143/88 87/142/87
f 102/151/102 96/152/96 82/144/82 88/143/88
f 101/150/101 100/149/100 102/151/102
f 102/153/102 97/154/97 96/155/96
f 100/156/100 98/157/98 97/154/97
f 102/153/102 100/156/100 97/154/97
f 100/156/100 99/158/99 98/157/98
g TotemBottom
f 110/159/110 111/160/111 104/161/104 103/162/103
f 111/160/111 112/163/112 105/164/105 104/161/104
f 112/163/112 113/165/113 106/166/106 105/164/105
f 113/165/113 114/167/114 107/168/107 106/166/106
f 114/167/114 115/169/115 108/170/108 107/168/107
f 115/169/115 116/171/116 109/172/109 108/170/108
f 116/173/116 110/159/110 103/162/103 109/174/109
f 117/175/117 118/176/118 111/160/111 110/159/110
f 118/176/118 119/177/119 112/163/112 111/160/111
f 119/177/119 120/178/120 113/165/113 112/163/112
f 120/178/120 121/179/121 114/167/114 113/165/113
f 121/179/121 122/180/122 115/169/115 114/167/114
f 122/180/122 123/181/123 116/171/116 115/169/115
f 123/182/123 117/175/117 110/159/110 116/173/116
f 124/183/124 125/184/125 108/170/108 109/172/109
f 125/184/125 126/185/126 107/168/107 108/170/108
f 126/185/126 127/186/127 106/166/106 107/168/107
f 127/186/127 128/187/128 105/164/105 106/166/106
f 128/187/128 129/188/129 104/161/104 105/164/105
f 129/188/129 130/189/130 103/162/103 104/161/104
f 130/189/130 124/190/124 109/174/109 103/162/103
f 131/191/131 132/192/132 118/176/118 117/175/117
f 132/192/132 133/193/133 119/177/119 118/176/118
f 133/193/133 134/194/134 120/178/120 119/177/119
f 134/194/134 135/195/135 121/179/121 120/178/120
f 135/195/135 136/196/136 122/180/122 121/179/121
f 136/196/136 137/197/137 123/181/123 122/180/122
f 137/198/137 131/191/131 117/175/117 123/182/123
f 129/199/129 128/200/128 125/201/125
f 130/202/130 125/201/125 124/203/124
f 128/200/128 126/204/126 125/201/125
f 130/202/130 129/199/129 125/201/125
f 128/200/128 127/205/127 126/204/126
