# This file uses centimeters as units for non-parametric coordinates.

mtllib Stumpes.mtl
g default
v -256.392944 0.000000 -44.800247
v -306.364989 0.000000 -67.899948
v -354.014442 0.784386 -46.663784
v -376.145599 0.000000 -10.109894
v -357.588756 0.000000 34.690353
v -306.364989 0.000000 63.357101
v -261.564738 0.000000 44.800251
v -237.836089 0.000000 -0.000000
v -250.981773 96.362633 -48.465672
v -294.910003 101.816376 -69.503014
v -351.210734 99.621643 -48.886749
v -373.269721 93.460777 -5.628948
v -354.956729 84.463501 41.698128
v -311.028506 79.009758 62.735458
v -258.996020 81.988892 46.604980
v -236.937041 88.149803 3.347160
v -306.364989 89.173492 -0.000000
v -260.002906 56.380310 -48.540199
v -245.031261 49.764549 -0.418247
v -261.421954 60.493256 41.354431
v -306.364989 47.912918 59.075459
v -345.935596 37.811714 41.772659
v -362.326278 33.627655 0.000000
v -348.784801 38.596100 -43.636196
v -306.364989 47.912918 -59.075459
vt 0.000000 0.796723
vt 0.060959 0.796723
vt 0.127299 0.796723
vt 0.183965 0.796723
vt 0.242916 0.796723
vt 0.302034 0.796723
vt 0.363098 0.796723
vt 0.422011 0.796723
vt 0.484813 0.796723
vt 0.000000 0.913498
vt 0.060959 0.913498
vt 0.127299 0.913498
vt 0.183965 0.913498
vt 0.242916 0.913498
vt 0.302034 0.913498
vt 0.363098 0.913498
vt 0.422011 0.913498
vt 0.484813 0.913498
vt 0.805567 0.024010
vt 0.742200 0.000014
vt 0.686152 0.023757
vt 0.660012 0.082186
vt 0.684320 0.137906
vt 0.752684 0.167551
vt 0.808729 0.143801
vt 0.829844 0.079743
vt 0.743512 0.079145
vt 0.484813 0.858072
vt 0.000000 0.858072
vt 0.422011 0.858072
vt 0.363098 0.858072
vt 0.302034 0.858072
vt 0.242916 0.858072
vt 0.183965 0.858072
vt 0.127299 0.858072
vt 0.060959 0.858072
vn 0.716448 0.078201 -0.693243
vn 0.013884 0.104558 -0.994422
vn -0.044912 -0.024873 -0.998681
vn 0.677647 -0.066280 -0.732395
vn -0.657156 0.235985 -0.715861
vn -0.680766 0.017040 -0.732303
vn -0.953702 0.294081 -0.062993
vn -0.999464 0.029763 0.013619
vn -0.749805 0.154244 0.643430
vn -0.710177 -0.024675 0.703590
vn -0.003047 0.055719 0.998442
vn -0.009635 -0.019402 0.999765
vn 0.681119 0.074454 0.728377
vn 0.696791 -0.042696 0.716002
vn 0.995510 0.083552 0.044477
vn 0.999549 -0.023429 0.018790
vn 0.020388 0.985327 0.169456
vn 0.031396 0.982446 0.183885
vn 0.025664 0.985788 0.166023
vn 0.038080 0.983775 0.175322
vn 0.049074 0.984775 0.166766
vn 0.046763 0.985057 0.165760
vn 0.017147 0.986782 0.161143
vn 0.000636 0.988422 0.151728
vn 0.007330 0.988612 0.150308
vn 0.690756 -0.201817 -0.694353
vn 0.976506 -0.213466 -0.029477
vn 0.673095 -0.195291 0.713305
vn -0.126523 -0.134256 0.982836
vn -0.804720 -0.150709 0.574206
vn -0.982796 -0.153706 -0.102401
vn -0.645991 -0.127832 -0.752566
vn -0.013024 -0.145086 -0.989333
s 1
g Stump_1 Stumps
usemtl lambert2SG
f 1/1/1 2/2/2 25/36/3 18/29/4
f 2/2/2 3/3/5 24/35/6 25/36/3
f 3/3/5 4/4/7 23/34/8 24/35/6
f 4/4/7 5/5/9 22/33/10 23/34/8
f 5/5/9 6/6/11 21/32/12 22/33/10
f 6/6/11 7/7/13 20/31/14 21/32/12
f 7/7/13 8/8/15 19/30/16 20/31/14
f 8/8/15 1/9/1 18/28/4 19/30/16
s 2
f 9/25/17 10/24/18 17/27/19
f 10/24/18 11/23/20 17/27/19
f 11/23/20 12/22/21 17/27/19
f 12/22/21 13/21/22 17/27/19
f 13/21/22 14/20/23 17/27/19
f 14/20/23 15/19/24 17/27/19
f 15/19/24 16/26/25 17/27/19
f 16/26/25 9/25/17 17/27/19
s 1
f 19/30/16 18/28/4 9/18/26 16/17/27
f 20/31/14 19/30/16 16/17/27 15/16/28
f 21/32/12 20/31/14 15/16/28 14/15/29
f 22/33/10 21/32/12 14/15/29 13/14/30
f 23/34/8 22/33/10 13/14/30 12/13/31
f 24/35/6 23/34/8 12/13/31 11/12/32
f 25/36/3 24/35/6 11/12/32 10/11/33
f 18/29/4 25/36/3 10/11/33 9/10/26
g default
v 244.535375 0.000000 4.317547
v 217.143484 0.000000 25.151117
v 214.917428 0.490334 57.685867
v 228.624107 0.000000 80.613312
v 258.800662 0.000000 83.484688
v 289.633672 0.000000 63.590149
v 292.505056 0.000000 33.413593
v 274.711934 0.000000 7.188923
v 242.855568 60.716095 -10.310310
v 215.385038 64.541351 9.998028
v 209.660486 63.001976 51.660130
v 229.217662 58.680748 79.543442
v 264.562246 52.370052 83.746597
v 292.032735 48.544804 63.438255
v 299.134508 50.634346 25.895048
v 279.577308 54.955605 -1.988274
v 254.689913 55.673641 39.934246
vt 0.493750 0.901657
vt 0.550470 0.901657
vt 0.614120 0.901657
vt 0.666253 0.901657
vt 0.722875 0.901657
vt 0.783566 0.901657
vt 0.842112 0.901657
vt 0.898458 0.901657
vt 0.956064 0.901657
vt 0.493750 1.000000
vt 0.550470 1.000000
vt 0.614120 1.000000
vt 0.666253 1.000000
vt 0.722875 1.000000
vt 0.783566 1.000000
vt 0.842112 1.000000
vt 0.898458 1.000000
vt 0.956064 1.000000
vt 0.845984 0.187964
vt 0.784762 0.164780
vt 0.730611 0.187720
vt 0.705357 0.244170
vt 0.728841 0.298004
vt 0.794891 0.326645
vt 0.849039 0.303699
vt 0.869439 0.241810
vt 0.786029 0.241232
vn -0.293607 -0.218421 -0.930638
vn -0.272722 -0.218674 -0.936912
vn -0.891969 -0.139060 -0.430179
vn -0.851540 -0.152828 -0.501521
vn -0.976273 -0.041016 0.212622
vn -0.987987 -0.048053 0.146879
vn -0.517852 0.007360 0.855439
vn -0.559339 0.006580 0.828913
vn 0.217745 -0.015343 0.975885
vn 0.229919 -0.016428 0.973071
vn 0.836524 -0.067626 0.543741
vn 0.840081 -0.067898 0.538195
vn 0.968006 -0.135377 -0.211274
vn 0.947877 -0.145246 -0.283609
vn 0.491704 -0.207043 -0.845790
vn 0.453010 -0.208092 -0.866879
vn 0.159262 0.985327 0.061374
vn 0.177167 0.982446 0.058408
vn 0.158701 0.985788 0.055104
vn 0.172732 0.983775 0.048491
vn 0.170324 0.984775 0.034770
vn 0.168353 0.985057 0.036341
vn 0.150399 0.986782 0.060343
vn 0.134347 0.988422 0.070519
vn 0.136228 0.988612 0.063939
s 1
g Stumps Stump_2
usemtl lambert2SG
f 34/46/34 26/37/35 27/38/36 35/47/37
f 27/38/36 28/39/38 36/48/39 35/47/37
f 28/39/38 29/40/40 37/49/41 36/48/39
f 29/40/40 30/41/42 38/50/43 37/49/41
f 30/41/42 31/42/44 39/51/45 38/50/43
f 31/42/44 32/43/46 40/52/47 39/51/45
f 32/43/46 33/44/48 41/53/49 40/52/47
f 33/44/48 26/45/35 34/54/34 41/53/49
s 2
f 34/61/50 35/60/51 42/63/52
f 35/60/51 36/59/53 42/63/52
f 36/59/53 37/58/54 42/63/52
f 37/58/54 38/57/55 42/63/52
f 38/57/55 39/56/56 42/63/52
f 39/56/56 40/55/57 42/63/52
f 40/55/57 41/62/58 42/63/52
f 41/62/58 34/61/50 42/63/52
g default
v -95.676682 56.126015 71.467209
v -80.359726 53.642593 96.866386
v -45.194191 57.480175 105.268173
v -20.177864 65.126114 91.108139
v -14.094154 72.309822 61.143814
v -29.411123 74.793213 35.744686
v -61.208649 72.645096 26.908619
v -86.225006 64.999168 41.068676
v -51.950073 64.322083 65.536919
v -3.022850 4.284859 18.508942
v -67.168091 -1.046227 46.785362
v -54.340717 -1.046223 73.894341
v -20.525436 -1.046227 74.240189
v -3.562439 -1.046230 64.235046
v 12.722733 -1.046227 45.596512
v -45.294472 -1.046238 18.801819
v -63.265152 -1.046227 32.482727
v -12.981705 76.926834 -74.725716
v -50.015507 87.472008 -44.314358
v -53.071960 99.474380 14.397806
v -21.571066 104.627174 51.600174
v 29.788877 99.762291 54.725166
v 66.822662 89.217125 24.313808
v 72.235977 79.626587 -29.135420
v 40.735039 74.473892 -66.337807
v 10.280809 88.269783 -5.387826
v -18.519375 60.505299 -65.373390
v 30.357519 47.656494 -59.227921
v 63.335297 57.215027 -28.062267
v 60.078503 46.557827 20.902288
v 27.368114 41.109264 50.678787
v -17.700016 41.882927 49.051464
v -51.445534 49.719543 18.775936
v -47.534237 56.904705 -26.764025
v -21.807341 -1.122890 -63.436977
v -62.243523 -1.122890 -26.694164
v -62.667877 -1.122898 25.282207
v -37.329300 -1.122883 59.737320
v 12.707201 -1.122883 59.748100
v 57.285934 -1.122890 24.896036
v 58.640919 -1.122898 -23.609079
v 26.918009 -1.122883 -61.277119
vt 0.103428 0.989551
vt 0.140172 0.989551
vt 0.181472 0.989551
vt 0.208850 0.989551
vt 0.238462 0.989551
vt 0.275758 0.989551
vt 0.047085 0.989551
vt 0.075477 0.989551
vt 0.637194 0.684015
vt 0.598931 0.669394
vt 0.565030 0.683870
vt 0.549171 0.719391
vt 0.563815 0.753195
vt 0.605096 0.771184
vt 0.638996 0.756702
vt 0.651813 0.717831
vt 0.599653 0.717437
vt 0.275758 0.925660
vt 0.103428 0.925660
vt 0.140172 0.925660
vt 0.181472 0.925660
vt 0.208850 0.925660
vt 0.238462 0.925660
vt 0.047085 0.925660
vt 0.075477 0.925660
vt 0.973297 0.187278
vt 0.916911 0.209943
vt 0.909615 0.121352
vt 0.849362 0.178959
vt 0.826275 0.122809
vt 0.853560 0.064903
vt 0.909948 0.042246
vt 0.972628 0.067534
vt 0.995679 0.123699
vt 0.789420 0.847910
vt 0.852283 0.847910
vt 0.852283 0.895360
vt 0.789420 0.895360
vt 0.731292 0.847910
vt 0.731292 0.895360
vt 0.669825 0.847910
vt 0.669825 0.895360
vt 0.611080 0.847910
vt 0.611080 0.895360
vt 0.551683 0.847910
vt 0.551683 0.895360
vt 0.976870 0.847910
vt 0.976870 0.895360
vt 0.913175 0.847910
vt 0.913175 0.895360
vt 0.852283 0.781462
vt 0.913175 0.781462
vt 0.976870 0.781462
vt 0.551683 0.781462
vt 0.611080 0.781462
vt 0.669825 0.781462
vt 0.731292 0.781462
vt 0.789420 0.781462
vt 0.006090 0.989551
vt 0.006090 0.925660
vt 0.493750 0.781462
vt 0.493750 0.847910
vt 0.493750 0.895360
vn -0.879035 -0.466057 0.100444
vn -0.901717 -0.432327 -0.000646
vn -0.413388 -0.539884 0.733237
vn -0.464663 -0.546311 0.696874
vn 0.740661 -0.039453 0.670719
vn 0.133776 -0.392653 0.909905
vn 0.267070 -0.340081 0.901676
vn 0.805803 0.028382 0.591503
vn 0.946929 0.318189 -0.045629
vn 0.941601 0.327301 -0.079130
vn 0.444395 0.317340 -0.837740
vn 0.527726 0.340973 -0.777974
vn -0.178096 0.102502 -0.978660
vn -0.134414 0.118963 -0.983758
vn -0.751704 -0.171244 -0.636880
vn -0.714894 -0.148109 -0.683367
vn -0.152256 0.965418 0.211626
vn -0.154049 0.969470 0.190778
vn -0.159562 0.964235 0.211637
vn -0.165842 0.966746 0.194678
vn -0.181915 0.963637 0.195730
vn -0.180287 0.963436 0.198211
vn -0.154166 0.962833 0.221777
vn -0.143687 0.959771 0.241235
vn -0.151207 0.959335 0.238356
vn 0.094244 0.976969 -0.191440
vn 0.113439 0.974085 -0.195678
vn 0.093001 0.975764 -0.198078
vn 0.107703 0.972621 -0.205934
vn 0.103813 0.969878 -0.220363
vn 0.101804 0.970495 -0.218578
vn 0.084442 0.977768 -0.191935
vn 0.067919 0.981325 -0.179970
vn 0.069344 0.979882 -0.187146
vn 0.423834 -0.144075 -0.894208
vn -0.413776 -0.106047 -0.904181
vn -0.264083 -0.388138 -0.882954
vn 0.461778 -0.404626 -0.789328
vn 0.935190 -0.188520 -0.299800
vn 0.937625 -0.304833 -0.167143
vn 0.891275 -0.106988 0.440662
vn 0.818590 -0.169892 0.548678
vn 0.343852 -0.006795 0.938999
vn 0.242290 -0.084130 0.966549
vn -0.358148 0.121077 0.925781
vn -0.402587 -0.042816 0.914380
vn -0.924355 0.136042 0.356455
vn -0.912709 -0.046600 0.405944
vn -0.936641 0.045138 -0.347370
vn -0.925245 -0.187456 -0.329821
vn -0.405200 0.058391 -0.912361
vn -0.911448 0.175927 -0.371903
vn -0.899519 0.304139 0.313630
vn -0.439021 0.318992 0.839943
vn 0.265807 0.142913 0.953374
vn 0.898640 -0.044355 0.436439
vn 0.940362 -0.074612 -0.331894
vn 0.407879 -0.037106 -0.912282
s 1
g Stumps Stump_3
usemtl lambert2SG
f 43/64/59 53/82/60 54/83/61 44/65/62
f 46/67/63 45/66/64 55/84/65 56/85/66
f 47/68/67 46/67/63 56/85/66 57/86/68
f 48/69/69 47/68/67 57/86/68 52/81/70
f 49/70/71 48/122/69 52/123/70 58/87/72
f 50/71/73 49/70/71 58/87/72 59/88/74
f 59/88/74 53/82/60 43/64/59 50/71/73
s 2
f 43/78/75 44/77/76 51/80/77
f 44/77/76 45/76/78 51/80/77
f 45/76/78 46/75/79 51/80/77
f 46/75/79 47/74/80 51/80/77
f 47/74/80 48/73/81 51/80/77
f 48/73/81 49/72/82 51/80/77
f 49/72/82 50/79/83 51/80/77
f 50/79/83 43/78/75 51/80/77
s 1
f 55/84/65 45/66/64 44/65/62 54/83/61
s 3
f 60/89/84 61/90/85 68/91/86
f 61/90/85 62/92/87 68/91/86
f 62/92/87 63/93/88 68/91/86
f 63/93/88 64/94/89 68/91/86
f 64/94/89 65/95/90 68/91/86
f 65/95/90 66/96/91 68/91/86
f 66/96/91 67/97/92 68/91/86
f 67/97/92 60/89/84 68/91/86
s 4
f 70/98/93 69/99/94 60/100/95 67/101/96
f 71/102/97 70/98/93 67/101/96 66/103/98
f 72/104/99 71/102/97 66/103/98 65/105/100
f 73/106/101 72/104/99 65/105/100 64/107/102
f 74/108/103 73/106/101 64/107/102 63/109/104
f 75/125/105 74/108/103 63/109/104 62/126/106
f 76/112/107 75/110/105 62/111/106 61/113/108
f 69/99/94 76/112/107 61/113/108 60/100/95
f 77/114/109 78/115/110 76/112/107 69/99/94
f 78/115/110 79/116/111 75/110/105 76/112/107
f 79/124/111 80/117/112 74/108/103 75/125/105
f 80/117/112 81/118/113 73/106/101 74/108/103
f 81/118/113 82/119/114 72/104/99 73/106/101
f 82/119/114 83/120/115 71/102/97 72/104/99
f 83/120/115 84/121/116 70/98/93 71/102/97
f 84/121/116 77/114/109 69/99/94 70/98/93
