# This file uses centimeters as units for non-parametric coordinates.

mtllib Binoculars.mtl
g default
v -4.343769 -4.799835 8.026741
v -8.999260 -6.728180 8.026741
v -13.654752 -4.799835 8.026741
v -15.583118 -0.144318 8.026741
v -13.654752 4.511169 8.026741
v -8.999260 6.439545 8.026741
v -4.343768 4.511169 8.026741
v -2.415401 -0.144318 8.026741
v -5.900839 -3.242737 -13.688263
v -8.999260 -4.526154 -13.688263
v -12.097680 -3.242737 -13.688263
v -13.381088 -0.144318 -13.688263
v -12.097680 2.954102 -13.688263
v -8.999260 4.237518 -13.688263
v -5.900839 2.954102 -13.688263
v -4.617431 -0.144318 -13.688263
v -8.999262 -0.144318 -13.688263
v 13.654750 -4.799835 8.026741
v 8.999259 -6.728180 8.026741
v 4.343768 -4.799835 8.026741
v 2.415401 -0.144318 8.026741
v 4.343768 4.511169 8.026741
v 8.999259 6.439545 8.026741
v 13.654750 4.511169 8.026741
v 15.583118 -0.144318 8.026741
v 12.097680 -3.242737 -13.688263
v 8.999259 -4.526154 -13.688263
v 5.900839 -3.242737 -13.688263
v 4.617431 -0.144318 -13.688263
v 5.900839 2.954102 -13.688263
v 8.999259 4.237518 -13.688263
v 12.097682 2.954102 -13.688263
v 13.381090 -0.144318 -13.688263
v 8.999260 -0.144318 -13.688263
v -3.143152 -6.000397 8.026741
v -8.999260 -8.426117 8.026741
v -14.855370 -6.000427 8.026741
v -17.281048 -0.144318 8.026741
v -14.855370 5.711792 8.026741
v -8.999260 8.137451 8.026741
v -3.143151 5.711792 8.026741
v -0.717471 -0.144318 8.026741
v 14.855368 -6.000427 8.026741
v 8.999259 -8.426147 8.026741
v 3.143151 -6.000427 8.026741
v 0.717471 -0.144318 8.026741
v 3.143151 5.711792 8.026741
v 8.999258 8.137451 8.026741
v 14.855368 5.711792 8.026741
v 17.281048 -0.144318 8.026741
v -3.143151 -6.000397 13.688263
v -8.999260 -8.426117 13.688263
v -14.855370 -6.000427 13.688263
v -17.281048 -0.144318 13.688263
v -14.855370 5.711792 13.688263
v -8.999260 8.137451 13.688263
v -3.143150 5.711792 13.688263
v -0.717471 -0.144317 13.688263
v 14.855368 -6.000427 13.688263
v 8.999259 -8.426147 13.688263
v 3.143151 -6.000427 13.688263
v 0.717471 -0.144318 13.688263
v 3.143151 5.711792 13.688263
v 8.999258 8.137451 13.688263
v 14.855368 5.711792 13.688263
v 17.281048 -0.144318 13.688263
v -4.862949 -4.280640 13.688263
v -8.999259 -5.993958 13.688263
v -13.135571 -4.280640 13.688263
v -14.848888 -0.144318 13.688263
v -13.135571 3.992004 13.688263
v -8.999260 5.705322 13.688263
v -4.862948 3.992004 13.688263
v -3.149632 -0.144318 13.688263
v 13.135571 -4.280640 13.688263
v 8.999259 -5.993988 13.688263
v 4.862948 -4.280640 13.688263
v 3.149632 -0.144318 13.688263
v 4.862948 3.992004 13.688263
v 8.999259 5.705322 13.688263
v 13.135571 3.992004 13.688263
v 14.848888 -0.144318 13.688263
v -4.862949 -4.280640 11.086472
v -8.999259 -5.993958 11.086472
v -8.999261 -0.144318 12.737404
v -13.135571 -4.280640 11.086472
v -14.848888 -0.144318 11.086472
v -13.135571 3.992004 11.086472
v -8.999260 5.705322 11.086472
v -4.862948 3.992004 11.086472
v -3.149632 -0.144318 11.086472
v 13.135571 -4.280640 11.086472
v 8.999259 -5.993988 11.086472
v 8.999260 -0.144318 12.737404
v 4.862948 -4.280640 11.086472
v 3.149632 -0.144318 11.086472
v 4.862948 3.992004 11.086472
v 8.999259 5.705322 11.086472
v 13.135571 3.992004 11.086472
v 14.848888 -0.144318 11.086472
v 10.466158 0.220093 2.030853
v 10.466158 -0.437775 -2.990341
v -0.000000 4.802490 2.849075
v -0.000000 4.144562 -3.808556
v -0.000000 8.426117 2.849075
v -0.000000 7.768188 -3.808556
v 10.466158 3.843719 2.030853
v 10.466158 3.185852 -2.990341
v -10.466158 0.220093 2.030853
v -10.466158 -0.437775 -2.990341
v -10.466158 3.843719 2.030853
v -10.466158 3.185852 -2.990341
vt 0.720557 0.606608
vt 0.720558 0.518701
vt 0.893834 0.818922
vt 0.852464 0.777552
vt 0.782717 0.456542
vt 0.893834 0.877428
vt 0.870624 0.456542
vt 0.852464 0.918797
vt 0.932784 0.518701
vt 0.793958 0.918797
vt 0.932784 0.606609
vt 0.752588 0.877428
vt 0.870624 0.668768
vt 0.752588 0.818922
vt 0.782718 0.668768
vt 0.793958 0.777552
vt 0.923103 0.524435
vt 0.057808 0.252749
vt 0.826694 0.564362
vt 0.923097 0.604301
vt 0.866620 0.660770
vt 0.786754 0.660764
vt 0.730285 0.604287
vt 0.730291 0.524422
vt 0.786768 0.467952
vt 0.823211 0.848175
vt 0.720558 0.606608
vt 0.720558 0.518701
vt 0.893834 0.818922
vt 0.852464 0.777552
vt 0.782717 0.456542
vt 0.893834 0.877428
vt 0.870625 0.456542
vt 0.852464 0.918797
vt 0.932785 0.518701
vt 0.793958 0.918797
vt 0.932785 0.606609
vt 0.752588 0.877428
vt 0.870625 0.668768
vt 0.752588 0.818922
vt 0.782718 0.668768
vt 0.793958 0.777552
vt 0.923024 0.524245
vt 0.057787 0.252732
vt 0.826694 0.564362
vt 0.866443 0.467880
vt 0.786578 0.468031
vt 0.730212 0.524612
vt 0.730364 0.604477
vt 0.786945 0.660843
vt 0.866810 0.660691
vt 0.823211 0.848175
vt 0.184881 0.132097
vt 0.184886 0.021518
vt 0.184962 0.795541
vt 0.184939 0.684979
vt 0.184928 0.574403
vt 0.184921 0.463819
vt 0.184907 0.353251
vt 0.184900 0.242666
vt 0.184947 0.795554
vt 0.184946 0.906136
vt 0.184898 0.132094
vt 0.184903 0.242669
vt 0.184910 0.353246
vt 0.184919 0.463826
vt 0.184925 0.574400
vt 0.184931 0.684979
vt 0.958825 0.791955
vt 0.958839 0.902533
vt 0.880658 0.980733
vt 0.770080 0.980746
vt 0.691881 0.902565
vt 0.691868 0.791987
vt 0.770049 0.713788
vt 0.880626 0.713775
vt 0.880663 0.980731
vt 0.958842 0.902529
vt 0.958824 0.791951
vt 0.880622 0.713773
vt 0.770044 0.713790
vt 0.691866 0.791992
vt 0.691883 0.902570
vt 0.770085 0.980748
vt 0.012416 0.252744
vt 0.012429 0.330865
vt 0.012429 0.408947
vt 0.012442 0.487069
vt 0.012435 0.565157
vt 0.012452 0.643275
vt 0.012406 0.096537
vt 0.012409 0.174642
vt 0.012398 0.252754
vt 0.012430 0.330856
vt 0.012450 0.408958
vt 0.012481 0.487059
vt 0.012506 0.565167
vt 0.012534 0.643271
vt 0.012343 0.096540
vt 0.012369 0.174648
vt 0.431591 0.904929
vt 0.431597 0.798823
vt 0.619228 0.802020
vt 0.618177 0.900975
vt 0.431607 0.627897
vt 0.640765 0.960904
vt 0.639748 0.739461
vt 0.431600 0.744772
vt 0.245006 0.900954
vt 0.243967 0.801999
vt 0.223454 0.739437
vt 0.219634 0.648909
vt 0.057765 0.174633
vt 0.923176 0.604111
vt 0.057734 0.096529
vt 0.057919 0.643253
vt 0.057895 0.565150
vt 0.057867 0.487047
vt 0.057836 0.408946
vt 0.057813 0.330840
vt 0.057792 0.174631
vt 0.866634 0.467958
vt 0.057802 0.096539
vt 0.057834 0.643264
vt 0.057828 0.565162
vt 0.057828 0.487054
vt 0.057814 0.408959
vt 0.057814 0.330851
vt 0.057709 0.018425
vt 0.057785 0.018421
vt 0.786316 0.941546
vt 0.864420 0.941534
vt 0.731080 0.886327
vt 0.731068 0.808223
vt 0.012317 0.018438
vt 0.786287 0.752987
vt 0.864391 0.752975
vt 0.919627 0.808194
vt 0.919640 0.886298
vt 0.864394 0.752976
vt 0.919629 0.808197
vt 0.786290 0.752985
vt 0.731069 0.808219
vt 0.012401 0.018434
vt 0.731078 0.886323
vt 0.786313 0.941544
vt 0.864417 0.941535
vt 0.919638 0.886301
vt 0.086169 0.684982
vt 0.086176 0.795560
vt 0.086159 0.574404
vt 0.086153 0.463830
vt 0.086144 0.353253
vt 0.086133 0.242678
vt 0.086127 0.132101
vt 0.086184 0.906139
vt 0.086138 0.242670
vt 0.086123 0.132103
vt 0.086144 0.353254
vt 0.086159 0.463822
vt 0.086166 0.574407
vt 0.086173 0.684981
vt 0.086180 0.795576
vt 0.086112 0.021516
vt 0.771382 0.696134
vt 0.693192 0.617944
vt 0.881960 0.696134
vt 0.960150 0.617944
vt 0.960150 0.507366
vt 0.881960 0.429176
vt 0.771382 0.429176
vt 0.693192 0.507366
vt 0.771382 0.696134
vt 0.693192 0.617944
vt 0.881960 0.696134
vt 0.960150 0.617944
vt 0.960150 0.507366
vt 0.881960 0.429176
vt 0.771382 0.429176
vt 0.693192 0.507366
vt 0.184882 0.021520
vt 0.086127 0.021519
vt 0.184957 0.906140
vt 0.086191 0.906141
vt 0.483520 0.426997
vt 0.396203 0.416825
vt 0.571360 0.430402
vt 0.659203 0.427019
vt 0.746522 0.416868
vt 0.832797 0.400009
vt 0.225220 0.376460
vt 0.309931 0.399946
vt 0.832762 0.400575
vt 0.917515 0.377238
vt 0.746461 0.417304
vt 0.659127 0.427324
vt 0.571280 0.430575
vt 0.483444 0.427038
vt 0.396142 0.416735
vt 0.309896 0.399726
vt 0.512945 0.047372
vt 0.454832 0.040603
vt 0.571407 0.049639
vt 0.629869 0.047387
vt 0.687984 0.040631
vt 0.745404 0.029411
vt 0.801787 0.013794
vt 0.397415 0.029369
vt 0.745925 0.029846
vt 0.341581 0.013565
vt 0.688488 0.040980
vt 0.630364 0.047648
vt 0.571898 0.049812
vt 0.513440 0.047458
vt 0.455337 0.040601
vt 0.397937 0.029281
vt 0.917515 0.376544
vt 0.341036 0.013738
vt 0.225220 0.376113
vt 0.802331 0.014314
vt 0.431588 0.960752
vt 0.222411 0.960879
vt 0.643578 0.648934
vn 0.381014 -0.919852 -0.093279
vn 0.381014 -0.919852 -0.093279
vn 0.381014 -0.919852 -0.093279
vn 0.381014 -0.919852 -0.093279
vn -0.381014 -0.919852 -0.093279
vn -0.381014 -0.919852 -0.093279
vn -0.381014 -0.919852 -0.093279
vn -0.381014 -0.919852 -0.093279
vn -0.919852 -0.381014 -0.093279
vn -0.919852 -0.381014 -0.093279
vn -0.919852 -0.381014 -0.093279
vn -0.919852 -0.381014 -0.093279
vn -0.919851 0.381015 -0.093278
vn -0.919851 0.381015 -0.093278
vn -0.919851 0.381015 -0.093278
vn -0.919851 0.381015 -0.093278
vn -0.381017 0.919851 -0.093278
vn -0.381017 0.919851 -0.093278
vn -0.381017 0.919851 -0.093278
vn -0.381017 0.919851 -0.093278
vn 0.381017 0.919851 -0.093278
vn 0.381017 0.919851 -0.093278
vn 0.381017 0.919851 -0.093278
vn 0.381017 0.919851 -0.093278
vn 0.919851 0.381015 -0.093278
vn 0.919851 0.381015 -0.093278
vn 0.919851 0.381015 -0.093278
vn 0.919851 0.381015 -0.093278
vn 0.919852 -0.381014 -0.093279
vn 0.919852 -0.381014 -0.093279
vn 0.919852 -0.381014 -0.093279
vn 0.919852 -0.381014 -0.093279
vn 0.000000 -0.271618 0.962405
vn 0.192063 -0.192063 0.962405
vn -0.000000 0.000000 1.000000
vn -0.192063 -0.192063 0.962405
vn -0.271618 0.000000 0.962405
vn -0.192063 0.192063 0.962405
vn -0.000000 0.271618 0.962405
vn 0.192063 0.192063 0.962405
vn 0.271618 0.000000 0.962405
vn 0.000000 0.000000 -1.000000
vn 0.000000 0.000000 -1.000000
vn 0.000000 0.000000 -1.000000
vn 0.000000 0.000000 -1.000000
vn 0.000000 0.000000 -1.000000
vn 0.000000 0.000000 -1.000000
vn 0.000000 0.000000 -1.000000
vn 0.000000 0.000000 -1.000000
vn 0.000000 0.000000 -1.000000
vn 0.381014 -0.919852 -0.093279
vn 0.381014 -0.919852 -0.093279
vn 0.381014 -0.919852 -0.093279
vn 0.381014 -0.919852 -0.093279
vn -0.381014 -0.919852 -0.093279
vn -0.381014 -0.919852 -0.093279
vn -0.381014 -0.919852 -0.093279
vn -0.381014 -0.919852 -0.093279
vn -0.919852 -0.381014 -0.093279
vn -0.919852 -0.381014 -0.093279
vn -0.919852 -0.381014 -0.093279
vn -0.919852 -0.381014 -0.093279
vn -0.919851 0.381015 -0.093278
vn -0.919851 0.381015 -0.093278
vn -0.919851 0.381015 -0.093278
vn -0.919851 0.381015 -0.093278
vn -0.381017 0.919851 -0.093278
vn -0.381017 0.919851 -0.093278
vn -0.381017 0.919851 -0.093278
vn -0.381017 0.919851 -0.093278
vn 0.381017 0.919851 -0.093278
vn 0.381017 0.919851 -0.093278
vn 0.381017 0.919851 -0.093278
vn 0.381017 0.919851 -0.093278
vn 0.919851 0.381015 -0.093278
vn 0.919851 0.381015 -0.093278
vn 0.919851 0.381015 -0.093278
vn 0.919851 0.381015 -0.093278
vn 0.919852 -0.381014 -0.093279
vn 0.919852 -0.381014 -0.093279
vn 0.919852 -0.381014 -0.093279
vn 0.919852 -0.381014 -0.093279
vn -0.000000 -0.271616 0.962406
vn 0.192063 -0.192063 0.962405
vn -0.000000 0.000000 1.000000
vn -0.192063 -0.192063 0.962405
vn -0.271618 0.000000 0.962405
vn -0.192063 0.192063 0.962405
vn -0.000000 0.271618 0.962405
vn 0.192063 0.192063 0.962405
vn 0.271618 0.000000 0.962405
vn 0.000000 0.000000 -1.000000
vn 0.000000 0.000000 -1.000000
vn 0.000000 0.000000 -1.000000
vn 0.000000 0.000000 -1.000000
vn 0.000000 0.000000 -1.000000
vn 0.000000 0.000000 -1.000000
vn 0.000000 0.000000 -1.000000
vn 0.000000 0.000000 -1.000000
vn 0.000000 0.000000 -1.000000
vn 0.000000 0.000000 -1.000000
vn 0.000000 0.000000 -1.000000
vn 0.000000 0.000000 -1.000000
vn -0.000000 0.000000 -1.000000
vn -0.000000 0.000000 -1.000000
vn -0.000000 0.000000 -1.000000
vn 0.000000 0.000000 -1.000000
vn 0.000000 0.000000 -1.000000
vn 0.000000 0.000000 -1.000000
vn 0.000000 0.000000 -1.000000
vn 0.000000 0.000000 -1.000000
vn 0.000000 0.000000 -1.000000
vn 0.000000 0.000000 -1.000000
vn 0.000000 0.000000 -1.000000
vn 0.000000 0.000000 -1.000000
vn 0.000000 0.000000 -1.000000
vn 0.000000 0.000000 -1.000000
vn 0.000000 0.000000 -1.000000
vn -0.000000 0.000000 -1.000000
vn 0.000000 0.000000 -1.000000
vn -0.000000 0.000000 -1.000000
vn -0.000000 0.000000 -1.000000
vn 0.000000 0.000000 -1.000000
vn 0.000000 0.000000 -1.000000
vn 0.000000 0.000000 -1.000000
vn 0.000000 0.000000 -1.000000
vn 0.000000 0.000000 -1.000000
vn 0.000000 0.000000 -1.000000
vn 0.000000 0.000000 -1.000000
vn 0.000000 0.000000 -1.000000
vn -0.000000 0.000000 -1.000000
vn -0.000000 0.000000 -1.000000
vn 0.382689 -0.923877 0.000000
vn 0.382689 -0.923877 0.000000
vn 0.382689 -0.923877 0.000000
vn 0.382689 -0.923877 0.000000
vn -0.382685 -0.923879 0.000000
vn -0.382685 -0.923879 0.000000
vn -0.382685 -0.923879 0.000000
vn -0.382685 -0.923879 0.000000
vn -0.923880 -0.382683 0.000000
vn -0.923880 -0.382683 0.000000
vn -0.923880 -0.382683 0.000000
vn -0.923880 -0.382683 0.000000
vn -0.923880 0.382683 0.000000
vn -0.923880 0.382683 0.000000
vn -0.923880 0.382683 0.000000
vn -0.923880 0.382683 0.000000
vn -0.382681 0.923881 0.000000
vn -0.382681 0.923881 0.000000
vn -0.382681 0.923881 0.000000
vn -0.382681 0.923881 0.000000
vn 0.382681 0.923881 0.000000
vn 0.382681 0.923881 0.000000
vn 0.382681 0.923881 0.000000
vn 0.382681 0.923881 0.000000
vn 0.923880 0.382683 -0.000000
vn 0.923880 0.382683 -0.000000
vn 0.923880 0.382683 -0.000000
vn 0.923880 0.382683 -0.000000
vn 0.923879 -0.382685 -0.000000
vn 0.923879 -0.382685 -0.000000
vn 0.923879 -0.382685 -0.000000
vn 0.923879 -0.382685 -0.000000
vn 0.382689 -0.923877 0.000000
vn 0.382689 -0.923877 0.000000
vn 0.382689 -0.923877 0.000000
vn 0.382689 -0.923877 0.000000
vn -0.382689 -0.923877 -0.000000
vn -0.382689 -0.923877 -0.000000
vn -0.382689 -0.923877 -0.000000
vn -0.382689 -0.923877 -0.000000
vn -0.923880 -0.382683 -0.000000
vn -0.923880 -0.382683 -0.000000
vn -0.923880 -0.382683 -0.000000
vn -0.923880 -0.382683 -0.000000
vn -0.923880 0.382683 -0.000000
vn -0.923880 0.382683 -0.000000
vn -0.923880 0.382683 -0.000000
vn -0.923880 0.382683 -0.000000
vn -0.382681 0.923881 -0.000000
vn -0.382681 0.923881 -0.000000
vn -0.382681 0.923881 -0.000000
vn -0.382681 0.923881 -0.000000
vn 0.382681 0.923881 0.000000
vn 0.382681 0.923881 0.000000
vn 0.382681 0.923881 0.000000
vn 0.382681 0.923881 0.000000
vn 0.923880 0.382683 0.000000
vn 0.923880 0.382683 0.000000
vn 0.923880 0.382683 0.000000
vn 0.923880 0.382683 0.000000
vn 0.923880 -0.382683 0.000000
vn 0.923880 -0.382683 0.000000
vn 0.923880 -0.382683 0.000000
vn 0.923880 -0.382683 0.000000
vn 0.000000 0.000000 1.000000
vn 0.000000 0.000000 1.000000
vn 0.000000 0.000000 1.000000
vn 0.000000 0.000000 1.000000
vn 0.000000 0.000000 1.000000
vn 0.000000 0.000000 1.000000
vn 0.000000 0.000000 1.000000
vn 0.000000 0.000000 1.000000
vn -0.000000 0.000000 1.000000
vn -0.000000 0.000000 1.000000
vn -0.000000 0.000000 1.000000
vn -0.000000 0.000000 1.000000
vn -0.000000 0.000000 1.000000
vn -0.000000 0.000000 1.000000
vn -0.000000 0.000000 1.000000
vn -0.000000 0.000000 1.000000
vn 0.000000 0.000000 1.000000
vn 0.000000 0.000000 1.000000
vn 0.000000 0.000000 1.000000
vn 0.000000 0.000000 1.000000
vn 0.000000 0.000000 1.000000
vn 0.000000 0.000000 1.000000
vn 0.000000 0.000000 1.000000
vn 0.000000 0.000000 1.000000
vn 0.000000 0.000000 1.000000
vn 0.000000 0.000000 1.000000
vn 0.000000 0.000000 1.000000
vn 0.000000 0.000000 1.000000
vn 0.000000 0.000000 1.000000
vn 0.000000 0.000000 1.000000
vn 0.000000 0.000000 1.000000
vn 0.000000 0.000000 1.000000
vn 0.000000 0.000000 1.000000
vn 0.000000 0.000000 1.000000
vn 0.000000 0.000000 1.000000
vn 0.000000 0.000000 1.000000
vn 0.000000 0.000000 1.000000
vn 0.000000 0.000000 1.000000
vn 0.000000 0.000000 1.000000
vn 0.000000 0.000000 1.000000
vn -0.000000 0.000000 1.000000
vn -0.000000 0.000000 1.000000
vn -0.000000 0.000000 1.000000
vn -0.000000 0.000000 1.000000
vn -0.000000 0.000000 1.000000
vn -0.000000 0.000000 1.000000
vn -0.000000 0.000000 1.000000
vn -0.000000 0.000000 1.000000
vn 0.000000 0.000000 1.000000
vn 0.000000 0.000000 1.000000
vn 0.000000 0.000000 1.000000
vn 0.000000 0.000000 1.000000
vn -0.000000 0.000000 1.000000
vn -0.000000 0.000000 1.000000
vn -0.000000 0.000000 1.000000
vn -0.000000 0.000000 1.000000
vn 0.000000 0.000000 1.000000
vn 0.000000 0.000000 1.000000
vn 0.000000 0.000000 1.000000
vn 0.000000 0.000000 1.000000
vn 0.000000 0.000000 1.000000
vn 0.000000 0.000000 1.000000
vn 0.000000 0.000000 1.000000
vn 0.000000 0.000000 1.000000
vn -0.382684 0.923879 0.000000
vn -0.382684 0.923879 0.000000
vn -0.382684 0.923879 0.000000
vn -0.382684 0.923879 0.000000
vn 0.382684 0.923880 0.000000
vn 0.382684 0.923880 0.000000
vn 0.382684 0.923880 0.000000
vn 0.382684 0.923880 0.000000
vn 0.923880 0.382683 0.000000
vn 0.923880 0.382683 0.000000
vn 0.923880 0.382683 0.000000
vn 0.923880 0.382683 0.000000
vn 0.923880 -0.382683 0.000000
vn 0.923880 -0.382683 0.000000
vn 0.923880 -0.382683 0.000000
vn 0.923880 -0.382683 0.000000
vn 0.382684 -0.923880 0.000000
vn 0.382684 -0.923880 0.000000
vn 0.382684 -0.923880 0.000000
vn 0.382684 -0.923880 0.000000
vn -0.382684 -0.923879 0.000000
vn -0.382684 -0.923879 0.000000
vn -0.382684 -0.923879 0.000000
vn -0.382684 -0.923879 0.000000
vn -0.923880 -0.382683 0.000000
vn -0.923880 -0.382683 0.000000
vn -0.923880 -0.382683 0.000000
vn -0.923880 -0.382683 0.000000
vn -0.923880 0.382683 0.000000
vn -0.923880 0.382683 0.000000
vn -0.923880 0.382683 0.000000
vn -0.923880 0.382683 0.000000
vn -0.382690 0.923877 0.000000
vn -0.382690 0.923877 0.000000
vn -0.382690 0.923877 0.000000
vn -0.382690 0.923877 0.000000
vn 0.382690 0.923877 0.000000
vn 0.382690 0.923877 0.000000
vn 0.382690 0.923877 0.000000
vn 0.382690 0.923877 0.000000
vn 0.923880 0.382683 0.000000
vn 0.923880 0.382683 0.000000
vn 0.923880 0.382683 0.000000
vn 0.923880 0.382683 0.000000
vn 0.923880 -0.382683 0.000000
vn 0.923880 -0.382683 0.000000
vn 0.923880 -0.382683 0.000000
vn 0.923880 -0.382683 0.000000
vn 0.382684 -0.923879 0.000000
vn 0.382684 -0.923879 0.000000
vn 0.382684 -0.923879 0.000000
vn 0.382684 -0.923879 0.000000
vn -0.382684 -0.923880 0.000000
vn -0.382684 -0.923880 0.000000
vn -0.382684 -0.923880 0.000000
vn -0.382684 -0.923880 0.000000
vn -0.923880 -0.382683 0.000000
vn -0.923880 -0.382683 0.000000
vn -0.923880 -0.382683 0.000000
vn -0.923880 -0.382683 0.000000
vn -0.923880 0.382683 0.000000
vn -0.923880 0.382683 0.000000
vn -0.923880 0.382683 0.000000
vn -0.923880 0.382683 0.000000
vn 0.398951 0.911207 -0.102661
vn 0.398951 0.911207 -0.102661
vn 0.398951 0.911207 -0.102661
vn 0.398951 0.911207 -0.102661
vn -0.398951 -0.911207 0.102661
vn -0.398951 -0.911207 0.102661
vn -0.398951 -0.911207 0.102661
vn -0.398951 -0.911207 0.102661
vn 0.000000 0.000000 1.000000
vn 0.077940 0.000000 0.996958
vn 0.077940 0.000000 0.996958
vn 0.000000 0.000000 1.000000
vn 0.077939 0.000000 -0.996958
vn -0.000000 0.000000 -1.000000
vn -0.000000 0.000000 -1.000000
vn 0.077939 0.000000 -0.996958
vn -0.398951 0.911207 -0.102661
vn -0.398951 0.911207 -0.102661
vn -0.398951 0.911207 -0.102661
vn -0.398951 0.911207 -0.102661
vn 0.398951 -0.911207 0.102661
vn 0.398951 -0.911207 0.102661
vn 0.398951 -0.911207 0.102661
vn 0.398951 -0.911207 0.102661
vn -0.077940 0.000000 0.996958
vn -0.077940 0.000000 0.996958
vn -0.077939 0.000000 -0.996958
vn -0.077939 0.000000 -0.996958
s off
g pCylinder3
usemtl lambert2SG
f 1/219/1 2/200/2 10/216/3 9/210/4
f 2/200/5 3/199/6 11/215/7 10/216/8
f 3/199/9 4/198/10 12/214/11 11/215/12
f 4/198/13 5/197/14 13/213/15 12/214/16
f 5/197/17 6/196/18 14/212/19 13/213/20
f 6/196/21 7/195/22 15/211/23 14/212/24
f 7/195/25 8/193/26 16/209/27 15/211/28
f 8/193/29 1/194/30 9/220/31 16/209/32
s 1
f 84/17/33 83/122/34 85/19/35
f 86/20/36 84/17/33 85/19/35
f 87/21/37 86/20/36 85/19/35
f 88/22/38 87/21/37 85/19/35
f 89/23/39 88/22/38 85/19/35
f 90/24/40 89/23/39 85/19/35
f 91/25/41 90/24/40 85/19/35
f 83/122/34 91/25/41 85/19/35
s 2
f 9/4/42 10/3/43 17/26/44
f 10/3/43 11/6/45 17/26/44
f 11/6/45 12/8/46 17/26/44
f 12/8/46 13/10/47 17/26/44
f 13/10/47 14/12/48 17/26/44
f 14/12/48 15/14/49 17/26/44
f 15/14/49 16/16/50 17/26/44
f 16/16/50 9/4/42 17/26/44
s off
f 18/186/51 19/192/52 27/208/53 26/202/54
f 19/192/55 20/191/56 28/218/57 27/208/58
f 20/217/59 21/190/60 29/206/61 28/207/62
f 21/190/63 22/189/64 30/205/65 29/206/66
f 22/189/67 23/188/68 31/204/69 30/205/70
f 23/188/71 24/187/72 32/203/73 31/204/74
f 24/187/75 25/185/76 33/201/77 32/203/78
f 25/185/79 18/186/80 26/202/81 33/201/82
s 3
f 93/43/83 92/114/84 94/45/85
f 95/46/86 93/43/83 94/45/85
f 96/47/87 95/46/86 94/45/85
f 97/48/88 96/47/87 94/45/85
f 98/49/89 97/48/88 94/45/85
f 99/50/90 98/49/89 94/45/85
f 100/51/91 99/50/90 94/45/85
f 92/114/84 100/51/91 94/45/85
s 4
f 26/30/92 27/29/93 34/52/94
f 27/29/93 28/32/95 34/52/94
f 28/32/95 29/34/96 34/52/94
f 29/34/96 30/36/97 34/52/94
f 30/36/97 31/38/98 34/52/94
f 31/38/98 32/40/99 34/52/94
f 32/40/99 33/42/100 34/52/94
f 33/42/100 26/30/92 34/52/94
s 5
f 2/2/101 1/1/102 35/174/103 36/180/104
f 3/5/105 2/2/101 36/180/104 37/179/106
f 4/7/107 3/5/105 37/179/106 38/178/108
f 5/9/109 4/7/107 38/178/108 39/177/110
f 6/11/111 5/9/109 39/177/110 40/176/112
f 7/13/113 6/11/111 40/176/112 41/175/114
f 8/15/115 7/13/113 41/175/114 42/173/116
f 1/1/102 8/15/115 42/173/116 35/174/103
s 6
f 19/28/117 18/27/118 43/166/119 44/172/120
f 20/31/121 19/28/117 44/172/120 45/171/122
f 21/33/123 20/31/121 45/171/122 46/170/124
f 22/35/125 21/33/123 46/170/124 47/169/126
f 23/37/127 22/35/125 47/169/126 48/168/128
f 24/39/129 23/37/127 48/168/128 49/167/130
f 25/41/131 24/39/129 49/167/130 50/165/132
f 18/27/118 25/41/131 50/165/132 43/166/119
s off
f 36/54/133 35/53/134 51/158/135 52/164/136
f 37/55/137 36/183/138 52/184/139 53/163/140
f 38/56/141 37/55/142 53/163/143 54/162/144
f 39/57/145 38/56/146 54/162/147 55/161/148
f 40/58/149 39/57/150 55/161/151 56/160/152
f 41/59/153 40/58/154 56/160/155 57/159/156
f 42/60/157 41/59/158 57/159/159 58/157/160
f 35/53/161 42/60/162 58/157/163 51/158/164
f 44/62/165 43/61/166 59/150/167 60/156/168
f 45/63/169 44/181/170 60/182/171 61/155/172
f 46/64/173 45/63/174 61/155/175 62/154/176
f 47/65/177 46/64/178 62/154/179 63/153/180
f 48/66/181 47/65/182 63/153/183 64/152/184
f 49/67/185 48/66/186 64/152/187 65/151/188
f 50/68/189 49/67/190 65/151/191 66/149/192
f 43/61/193 50/68/194 66/149/195 59/150/196
f 52/70/197 51/69/198 67/141/199 68/148/200
f 53/71/201 52/70/202 68/148/203 69/147/204
f 54/72/205 53/71/206 69/147/207 70/146/208
f 55/73/209 54/72/210 70/146/211 71/145/212
f 56/74/213 55/73/214 71/145/215 72/143/216
f 57/75/217 56/74/218 72/143/219 73/142/220
f 58/76/221 57/75/222 73/142/223 74/140/224
f 51/69/225 58/76/226 74/140/227 67/141/228
f 60/78/229 59/77/230 75/132/231 76/139/232
f 61/79/233 60/78/234 76/139/235 77/138/236
f 62/80/237 61/79/238 77/138/239 78/137/240
f 63/81/241 62/80/242 78/137/243 79/136/244
f 64/82/245 63/81/246 79/136/247 80/134/248
f 65/83/249 64/82/250 80/134/251 81/133/252
f 66/84/253 65/83/254 81/133/255 82/131/256
f 59/77/257 66/84/258 82/131/259 75/132/260
f 68/86/261 67/85/262 83/18/263 84/128/264
f 69/87/265 68/86/266 84/128/267 86/127/268
f 70/88/269 69/87/270 86/127/271 87/126/272
f 71/89/273 70/88/274 87/126/275 88/125/276
f 72/90/277 71/89/278 88/125/279 89/124/280
f 73/91/281 72/144/282 89/130/283 90/123/284
f 74/92/285 73/91/286 90/123/287 91/121/288
f 67/85/289 74/92/290 91/121/291 83/18/292
f 76/94/293 75/93/294 92/44/295 93/120/296
f 77/95/297 76/94/298 93/120/299 95/119/300
f 78/96/301 77/95/302 95/119/303 96/118/304
f 79/97/305 78/96/306 96/118/307 97/117/308
f 80/98/309 79/97/310 97/117/311 98/116/312
f 81/99/313 80/135/314 98/129/315 99/115/316
f 82/100/317 81/99/318 99/115/319 100/113/320
f 75/93/321 82/100/322 100/113/323 92/44/324
f 106/101/325 105/102/326 107/103/327 108/104/328
f 104/105/329 102/223/330 101/107/331 103/108/332
s 7
f 103/108/333 101/107/334 107/103/335 105/102/336
s 8
f 102/106/337 104/221/338 106/101/339 108/104/340
s off
f 106/101/341 112/109/342 111/110/343 105/102/344
f 104/105/345 103/108/346 109/111/347 110/112/348
s 7
f 103/108/333 105/102/336 111/110/349 109/111/350
s 8
f 110/222/351 112/109/352 106/101/339 104/221/338
