# This file uses centimeters as units for non-parametric coordinates.

mtllib Binoculars.mtl
g default
v -4.343769 -4.799835 8.026741
v -8.999260 -6.728180 8.026741
v -13.654752 -4.799835 8.026741
v -15.583118 -0.144318 8.026741
v -13.654752 4.511169 8.026741
v -8.999260 6.439545 8.026741
v -4.343768 4.511169 8.026741
v -2.415401 -0.144318 8.026741
v -5.900839 -3.242737 -13.688263
v -8.999260 -4.526154 -13.688263
v -12.097680 -3.242737 -13.688263
v -13.381088 -0.144318 -13.688263
v -12.097680 2.954102 -13.688263
v -8.999260 4.237518 -13.688263
v -5.900839 2.954102 -13.688263
v -4.617431 -0.144318 -13.688263
v -8.999262 -0.144318 -13.688263
v 13.654750 -4.799835 8.026741
v 8.999259 -6.728180 8.026741
v 4.343768 -4.799835 8.026741
v 2.415401 -0.144318 8.026741
v 4.343768 4.511169 8.026741
v 8.999259 6.439545 8.026741
v 13.654750 4.511169 8.026741
v 15.583118 -0.144318 8.026741
v 12.097680 -3.242737 -13.688263
v 8.999259 -4.526154 -13.688263
v 5.900839 -3.242737 -13.688263
v 4.617431 -0.144318 -13.688263
v 5.900839 2.954102 -13.688263
v 8.999259 4.237518 -13.688263
v 12.097682 2.954102 -13.688263
v 13.381090 -0.144318 -13.688263
v 8.999260 -0.144318 -13.688263
v -3.143152 -6.000397 8.026741
v -8.999260 -8.426117 8.026741
v -14.855370 -6.000427 8.026741
v -17.281048 -0.144318 8.026741
v -14.855370 5.711792 8.026741
v -8.999260 8.137451 8.026741
v -3.143151 5.711792 8.026741
v -0.717471 -0.144318 8.026741
v 14.855368 -6.000427 8.026741
v 8.999259 -8.426147 8.026741
v 3.143151 -6.000427 8.026741
v 0.717471 -0.144318 8.026741
v 3.143151 5.711792 8.026741
v 8.999258 8.137451 8.026741
v 14.855368 5.711792 8.026741
v 17.281048 -0.144318 8.026741
v -3.143151 -6.000397 13.688263
v -8.999260 -8.426117 13.688263
v -14.855370 -6.000427 13.688263
v -17.281048 -0.144318 13.688263
v -14.855370 5.711792 13.688263
v -8.999260 8.137451 13.688263
v -3.143151 5.711793 13.688263
v -0.717471 -0.144316 13.688263
v 14.855368 -6.000427 13.688263
v 8.999259 -8.426147 13.688263
v 3.143151 -6.000427 13.688263
v 0.717471 -0.144318 13.688263
v 3.143151 5.711792 13.688263
v 8.999258 8.137451 13.688263
v 14.855368 5.711792 13.688263
v 17.281048 -0.144318 13.688263
v -4.862949 -4.280640 13.688263
v -8.999259 -5.993958 13.688263
v -13.135571 -4.280640 13.688263
v -14.848888 -0.144318 13.688263
v -13.135571 3.992004 13.688263
v -8.999260 5.705322 13.688263
v -4.862948 3.992004 13.688263
v -3.149632 -0.144318 13.688263
v 13.135571 -4.280640 13.688263
v 8.999259 -5.993988 13.688263
v 4.862948 -4.280640 13.688263
v 3.149632 -0.144318 13.688263
v 4.862948 3.992004 13.688263
v 8.999259 5.705322 13.688263
v 13.135571 3.992004 13.688263
v 14.848888 -0.144318 13.688263
v -4.862949 -4.280640 11.086472
v -8.999259 -5.993958 11.086472
v -8.999261 -0.144318 12.737404
v -13.135571 -4.280640 11.086472
v -14.848888 -0.144318 11.086472
v -13.135571 3.992004 11.086472
v -8.999260 5.705322 11.086472
v -4.862948 3.992004 11.086472
v -3.149632 -0.144318 11.086472
v 13.135571 -4.280640 11.086472
v 8.999259 -5.993988 11.086472
v 8.999260 -0.144318 12.737404
v 4.862948 -4.280640 11.086472
v 3.149632 -0.144318 11.086472
v 4.862948 3.992004 11.086472
v 8.999259 5.705322 11.086472
v 13.135571 3.992004 11.086472
v 14.848888 -0.144318 11.086472
v 10.466158 0.220093 2.030853
v 10.466158 -0.437775 -2.990341
v -0.000000 4.802490 2.849075
v -0.000000 4.144562 -3.808556
v -0.000000 8.426117 2.849075
v -0.000000 7.768188 -3.808556
v 10.466158 3.843719 2.030853
v 10.466158 3.185852 -2.990341
v -10.466158 0.220093 2.030853
v -10.466158 -0.437775 -2.990341
v -10.466158 3.843719 2.030853
v -10.466158 3.185852 -2.990341
vt 0.937687 0.773279
vt 0.937687 0.754783
vt 0.974145 0.817950
vt 0.965440 0.809246
vt 0.950765 0.741704
vt 0.974145 0.830260
vt 0.969261 0.741704
vt 0.965440 0.838964
vt 0.982340 0.754783
vt 0.953131 0.838964
vt 0.982340 0.773279
vt 0.944426 0.830260
vt 0.969261 0.786358
vt 0.944426 0.817950
vt 0.950765 0.786358
vt 0.953131 0.809246
vt 0.980303 0.755989
vt 0.032948 0.815864
vt 0.960018 0.764390
vt 0.980302 0.772793
vt 0.968419 0.784675
vt 0.951615 0.784673
vt 0.939734 0.772790
vt 0.939735 0.755986
vt 0.951618 0.744105
vt 0.959285 0.824105
vt 0.937687 0.773279
vt 0.937687 0.754783
vt 0.974145 0.817950
vt 0.965440 0.809246
vt 0.950765 0.741704
vt 0.974145 0.830260
vt 0.969261 0.741704
vt 0.965440 0.838964
vt 0.982340 0.754783
vt 0.953131 0.838964
vt 0.982340 0.773279
vt 0.944426 0.830260
vt 0.969261 0.786358
vt 0.944426 0.817950
vt 0.950766 0.786358
vt 0.953131 0.809246
vt 0.980287 0.755949
vt 0.032944 0.815860
vt 0.960018 0.764390
vt 0.968382 0.744090
vt 0.951578 0.744122
vt 0.939718 0.756027
vt 0.939750 0.772830
vt 0.951655 0.784690
vt 0.968459 0.784658
vt 0.959285 0.824105
vt 0.059685 0.790478
vt 0.059686 0.767212
vt 0.059702 0.930069
vt 0.059697 0.906806
vt 0.059695 0.883541
vt 0.059693 0.860273
vt 0.059690 0.837009
vt 0.059689 0.813742
vt 0.059698 0.930071
vt 0.059698 0.953338
vt 0.059688 0.790478
vt 0.059689 0.813743
vt 0.059691 0.837009
vt 0.059693 0.860275
vt 0.059694 0.883540
vt 0.059695 0.906806
vt 0.987819 0.812276
vt 0.987822 0.835542
vt 0.971372 0.851996
vt 0.948106 0.851999
vt 0.931653 0.835549
vt 0.931650 0.812283
vt 0.948100 0.795830
vt 0.971366 0.795827
vt 0.971373 0.851995
vt 0.987823 0.835541
vt 0.987819 0.812275
vt 0.971365 0.795826
vt 0.948099 0.795830
vt 0.931650 0.812284
vt 0.931654 0.835550
vt 0.948108 0.851999
vt 0.023397 0.815863
vt 0.023400 0.832299
vt 0.023400 0.848728
vt 0.023403 0.865165
vt 0.023401 0.881595
vt 0.023405 0.898031
vt 0.023395 0.782996
vt 0.023396 0.799430
vt 0.023393 0.815865
vt 0.023400 0.832298
vt 0.023404 0.848730
vt 0.023411 0.865163
vt 0.023416 0.881597
vt 0.023422 0.898030
vt 0.023382 0.782997
vt 0.023387 0.799431
vt 0.874008 0.975716
vt 0.874009 0.953391
vt 0.913487 0.954064
vt 0.913266 0.974884
vt 0.874011 0.917428
vt 0.918019 0.987493
vt 0.917804 0.940901
vt 0.874010 0.942019
vt 0.834749 0.974880
vt 0.834531 0.954060
vt 0.830215 0.940896
vt 0.829411 0.921849
vt 0.032939 0.799428
vt 0.980318 0.772753
vt 0.032932 0.782994
vt 0.032971 0.898027
vt 0.032966 0.881594
vt 0.032960 0.865161
vt 0.032954 0.848728
vt 0.032949 0.832294
vt 0.032945 0.799427
vt 0.968422 0.744106
vt 0.032947 0.782996
vt 0.032953 0.898029
vt 0.032952 0.881596
vt 0.032952 0.865162
vt 0.032949 0.848731
vt 0.032949 0.832296
vt 0.032927 0.766561
vt 0.032943 0.766560
vt 0.951523 0.843751
vt 0.967956 0.843748
vt 0.939901 0.832132
vt 0.939898 0.815699
vt 0.023376 0.766564
vt 0.951516 0.804077
vt 0.967950 0.804075
vt 0.979572 0.815693
vt 0.979574 0.832126
vt 0.967951 0.804075
vt 0.979572 0.815694
vt 0.951517 0.804077
vt 0.939898 0.815698
vt 0.023394 0.766563
vt 0.939900 0.832132
vt 0.951522 0.843750
vt 0.967955 0.843748
vt 0.979574 0.832127
vt 0.038915 0.906807
vt 0.038917 0.930073
vt 0.038913 0.883541
vt 0.038912 0.860276
vt 0.038910 0.837010
vt 0.038908 0.813745
vt 0.038906 0.790479
vt 0.038918 0.953339
vt 0.038909 0.813743
vt 0.038906 0.790479
vt 0.038910 0.837010
vt 0.038913 0.860274
vt 0.038915 0.883541
vt 0.038916 0.906807
vt 0.038918 0.930076
vt 0.038903 0.767211
vt 0.948380 0.792115
vt 0.931929 0.775664
vt 0.971646 0.792115
vt 0.988098 0.775664
vt 0.988098 0.752398
vt 0.971646 0.735946
vt 0.948380 0.735946
vt 0.931929 0.752398
vt 0.948380 0.792115
vt 0.931929 0.775664
vt 0.971646 0.792115
vt 0.988098 0.775664
vt 0.988098 0.752398
vt 0.971646 0.735946
vt 0.948380 0.735946
vt 0.931929 0.752398
vt 0.059685 0.767212
vt 0.038907 0.767212
vt 0.059701 0.953339
vt 0.038920 0.953339
vt 0.509055 0.694748
vt 0.490683 0.692608
vt 0.527537 0.695464
vt 0.546019 0.694752
vt 0.564391 0.692617
vt 0.582544 0.689069
vt 0.454708 0.684115
vt 0.472531 0.689056
vt 0.582536 0.689189
vt 0.600369 0.684278
vt 0.564379 0.692708
vt 0.546003 0.694817
vt 0.527520 0.695501
vt 0.509039 0.694756
vt 0.490670 0.692589
vt 0.472524 0.689010
vt 0.515246 0.614874
vt 0.503019 0.613449
vt 0.527547 0.615350
vt 0.539847 0.614877
vt 0.552075 0.613455
vt 0.564156 0.611094
vt 0.576019 0.607809
vt 0.490938 0.611086
vt 0.564266 0.611186
vt 0.479191 0.607760
vt 0.552181 0.613529
vt 0.539951 0.614932
vt 0.527650 0.615387
vt 0.515350 0.614892
vt 0.503125 0.613449
vt 0.491048 0.611067
vt 0.600369 0.684132
vt 0.479076 0.607797
vt 0.454708 0.684042
vt 0.576134 0.607918
vt 0.874007 0.987462
vt 0.829995 0.987488
vt 0.918610 0.921854
vn 0.703499 -0.703499 -0.100889
vn -0.000000 -0.994898 -0.100889
vn 0.000000 -0.994898 -0.100889
vn 0.703499 -0.703498 -0.100889
vn -0.703499 -0.703499 -0.100889
vn -0.703499 -0.703498 -0.100889
vn -0.994898 -0.000000 -0.100889
vn -0.994898 -0.000000 -0.100889
vn -0.703499 0.703499 -0.100888
vn -0.703499 0.703499 -0.100888
vn 0.000000 0.994898 -0.100888
vn -0.000000 0.994898 -0.100888
vn 0.703499 0.703499 -0.100888
vn 0.703499 0.703499 -0.100888
vn 0.994898 -0.000000 -0.100889
vn 0.994898 0.000000 -0.100889
vn 0.000000 -0.271618 0.962405
vn 0.192063 -0.192063 0.962405
vn -0.000000 0.000000 1.000000
vn -0.192063 -0.192063 0.962405
vn -0.271618 0.000000 0.962405
vn -0.192063 0.192063 0.962405
vn -0.000000 0.271618 0.962405
vn 0.192063 0.192063 0.962405
vn 0.271618 0.000000 0.962405
vn 0.000000 0.000000 -1.000000
vn 0.000000 0.000000 -1.000000
vn 0.000000 0.000000 -1.000000
vn 0.000000 0.000000 -1.000000
vn 0.000000 0.000000 -1.000000
vn 0.000000 0.000000 -1.000000
vn 0.000000 0.000000 -1.000000
vn 0.000000 0.000000 -1.000000
vn 0.000000 0.000000 -1.000000
vn 0.703499 -0.703499 -0.100889
vn 0.000000 -0.994898 -0.100889
vn 0.000000 -0.994898 -0.100889
vn 0.703499 -0.703498 -0.100889
vn -0.703499 -0.703499 -0.100889
vn -0.703499 -0.703498 -0.100889
vn -0.994898 -0.000000 -0.100889
vn -0.994898 0.000000 -0.100889
vn -0.703499 0.703499 -0.100888
vn -0.703499 0.703499 -0.100888
vn 0.000000 0.994898 -0.100888
vn 0.000000 0.994898 -0.100888
vn 0.703499 0.703499 -0.100888
vn 0.703499 0.703499 -0.100888
vn 0.994898 -0.000000 -0.100889
vn 0.994898 -0.000000 -0.100889
vn -0.000000 -0.271616 0.962406
vn 0.192063 -0.192063 0.962405
vn -0.000000 0.000000 1.000000
vn -0.192063 -0.192063 0.962405
vn -0.271618 0.000000 0.962405
vn -0.192063 0.192063 0.962405
vn -0.000000 0.271618 0.962405
vn 0.192063 0.192063 0.962405
vn 0.271618 0.000000 0.962405
vn 0.000000 0.000000 -1.000000
vn 0.000000 0.000000 -1.000000
vn 0.000000 0.000000 -1.000000
vn 0.000000 0.000000 -1.000000
vn 0.000000 0.000000 -1.000000
vn 0.000000 0.000000 -1.000000
vn 0.000000 0.000000 -1.000000
vn 0.000000 0.000000 -1.000000
vn 0.000000 0.000000 -1.000000
vn 0.000000 0.000000 -1.000000
vn 0.000000 0.000000 -1.000000
vn 0.000000 0.000000 -1.000000
vn -0.000000 0.000000 -1.000000
vn -0.000000 0.000000 -1.000000
vn -0.000000 0.000000 -1.000000
vn 0.000000 0.000000 -1.000000
vn 0.000000 0.000000 -1.000000
vn 0.000000 0.000000 -1.000000
vn 0.000000 0.000000 -1.000000
vn 0.000000 0.000000 -1.000000
vn 0.000000 0.000000 -1.000000
vn 0.000000 0.000000 -1.000000
vn 0.000000 0.000000 -1.000000
vn 0.000000 0.000000 -1.000000
vn 0.000000 0.000000 -1.000000
vn 0.000000 0.000000 -1.000000
vn 0.000000 0.000000 -1.000000
vn -0.000000 0.000000 -1.000000
vn 0.000000 0.000000 -1.000000
vn -0.000000 0.000000 -1.000000
vn -0.000000 0.000000 -1.000000
vn 0.000000 0.000000 -1.000000
vn 0.000000 0.000000 -1.000000
vn 0.000000 0.000000 -1.000000
vn 0.000000 0.000000 -1.000000
vn 0.000000 0.000000 -1.000000
vn 0.000000 0.000000 -1.000000
vn 0.000000 0.000000 -1.000000
vn 0.000000 0.000000 -1.000000
vn -0.000000 0.000000 -1.000000
vn -0.000000 0.000000 -1.000000
vn 0.000003 -1.000000 0.000000
vn 0.707107 -0.707106 0.000000
vn 0.707107 -0.707106 0.000000
vn 0.000003 -1.000000 0.000000
vn -0.707107 -0.707106 0.000000
vn -0.707107 -0.707106 0.000000
vn -1.000000 0.000000 0.000000
vn -1.000000 0.000000 0.000000
vn -0.707106 0.707108 0.000000
vn -0.707106 0.707108 0.000000
vn -0.000000 1.000000 -0.000000
vn -0.000000 1.000000 -0.000000
vn 0.707106 0.707108 -0.000000
vn 0.707106 0.707108 -0.000000
vn 1.000000 -0.000000 -0.000000
vn 1.000000 0.000000 -0.000000
vn 0.000000 -1.000000 -0.000000
vn 0.707109 -0.707105 0.000000
vn 0.707109 -0.707105 0.000000
vn 0.000000 -1.000000 -0.000000
vn -0.707109 -0.707105 -0.000000
vn -0.707109 -0.707105 -0.000000
vn -1.000000 0.000000 -0.000000
vn -1.000000 0.000000 -0.000000
vn -0.707106 0.707108 -0.000000
vn -0.707106 0.707108 -0.000000
vn 0.000000 1.000000 -0.000000
vn 0.000000 1.000000 -0.000000
vn 0.707106 0.707108 0.000000
vn 0.707106 0.707108 0.000000
vn 1.000000 0.000000 0.000000
vn 1.000000 0.000000 0.000000
vn 0.000000 0.000000 1.000000
vn 0.000000 0.000000 1.000000
vn 0.000000 0.000000 1.000000
vn 0.000000 0.000000 1.000000
vn -0.000000 0.000000 1.000000
vn -0.000000 0.000000 1.000000
vn -0.000000 0.000000 1.000000
vn -0.000000 0.000000 1.000000
vn -0.000000 0.000000 1.000000
vn -0.000000 0.000000 1.000000
vn -0.000000 0.000000 1.000000
vn -0.000000 0.000000 1.000000
vn 0.000000 0.000000 1.000000
vn 0.000000 0.000000 1.000000
vn 0.000000 0.000000 1.000000
vn 0.000000 0.000000 1.000000
vn 0.000000 0.000000 1.000000
vn 0.000000 0.000000 1.000000
vn 0.000000 0.000000 1.000000
vn 0.000000 0.000000 1.000000
vn -0.000000 0.000000 1.000000
vn -0.000000 0.000000 1.000000
vn -0.000000 0.000000 1.000000
vn -0.000000 0.000000 1.000000
vn -0.000000 0.000000 1.000000
vn -0.000000 0.000000 1.000000
vn -0.000000 0.000000 1.000000
vn -0.000000 0.000000 1.000000
vn 0.000000 0.000000 1.000000
vn 0.000000 0.000000 1.000000
vn 0.000000 0.000000 1.000000
vn 0.000000 0.000000 1.000000
vn 0.000000 1.000000 0.000000
vn -0.707108 0.707106 0.000000
vn -0.707108 0.707106 0.000000
vn 0.000000 1.000000 0.000000
vn 0.707107 0.707106 0.000000
vn 0.707107 0.707106 0.000000
vn 1.000000 0.000000 0.000000
vn 1.000000 0.000000 0.000000
vn 0.707108 -0.707106 0.000000
vn 0.707108 -0.707106 0.000000
vn 0.000000 -1.000000 0.000000
vn 0.000000 -1.000000 0.000000
vn -0.707107 -0.707106 0.000000
vn -0.707107 -0.707106 0.000000
vn -1.000000 0.000000 0.000000
vn -1.000000 0.000000 0.000000
vn -0.000000 1.000000 0.000000
vn -0.707109 0.707104 0.000000
vn -0.707109 0.707104 0.000000
vn -0.000000 1.000000 0.000000
vn 0.707109 0.707104 0.000000
vn 0.707109 0.707104 0.000000
vn 1.000000 0.000000 0.000000
vn 1.000000 0.000000 0.000000
vn 0.707108 -0.707106 0.000000
vn 0.707108 -0.707106 0.000000
vn 0.000000 -1.000000 0.000000
vn 0.000000 -1.000000 0.000000
vn -0.707107 -0.707106 0.000000
vn -0.707107 -0.707106 0.000000
vn -1.000000 0.000000 0.000000
vn -1.000000 0.000000 0.000000
vn 0.000000 0.993713 -0.111957
vn 0.000000 0.993713 -0.111957
vn 0.398951 0.911207 -0.102661
vn 0.398951 0.911207 -0.102661
vn 0.000000 -0.993713 0.111957
vn -0.398951 -0.911207 0.102661
vn -0.398951 -0.911207 0.102661
vn 0.000000 -0.993713 0.111957
vn 0.000000 0.000000 1.000000
vn 0.077940 0.000000 0.996958
vn 0.077940 0.000000 0.996958
vn 0.000000 0.000000 1.000000
vn 0.077939 0.000000 -0.996958
vn -0.000000 0.000000 -1.000000
vn -0.000000 0.000000 -1.000000
vn 0.077939 0.000000 -0.996958
vn -0.398951 0.911207 -0.102661
vn -0.398951 0.911207 -0.102661
vn 0.398951 -0.911207 0.102661
vn 0.398951 -0.911207 0.102661
vn -0.077940 0.000000 0.996958
vn -0.077940 0.000000 0.996958
vn -0.077939 0.000000 -0.996958
vn -0.077939 0.000000 -0.996958
s 1
g Binoculars
usemtl lambert2SG
f 1/219/1 2/200/2 10/216/3 9/210/4
f 2/200/2 3/199/5 11/215/6 10/216/3
f 3/199/5 4/198/7 12/214/8 11/215/6
f 4/198/7 5/197/9 13/213/10 12/214/8
f 5/197/9 6/196/11 14/212/12 13/213/10
f 6/196/11 7/195/13 15/211/14 14/212/12
f 7/195/13 8/193/15 16/209/16 15/211/14
f 8/193/15 1/194/1 9/220/4 16/209/16
s 2
f 84/17/17 83/122/18 85/19/19
f 86/20/20 84/17/17 85/19/19
f 87/21/21 86/20/20 85/19/19
f 88/22/22 87/21/21 85/19/19
f 89/23/23 88/22/22 85/19/19
f 90/24/24 89/23/23 85/19/19
f 91/25/25 90/24/24 85/19/19
f 83/122/18 91/25/25 85/19/19
s 3
f 9/4/26 10/3/27 17/26/28
f 10/3/27 11/6/29 17/26/28
f 11/6/29 12/8/30 17/26/28
f 12/8/30 13/10/31 17/26/28
f 13/10/31 14/12/32 17/26/28
f 14/12/32 15/14/33 17/26/28
f 15/14/33 16/16/34 17/26/28
f 16/16/34 9/4/26 17/26/28
s 4
f 18/186/35 19/192/36 27/208/37 26/202/38
f 19/192/36 20/191/39 28/218/40 27/208/37
f 20/217/39 21/190/41 29/206/42 28/207/40
f 21/190/41 22/189/43 30/205/44 29/206/42
f 22/189/43 23/188/45 31/204/46 30/205/44
f 23/188/45 24/187/47 32/203/48 31/204/46
f 24/187/47 25/185/49 33/201/50 32/203/48
f 25/185/49 18/186/35 26/202/38 33/201/50
s 5
f 93/43/51 92/114/52 94/45/53
f 95/46/54 93/43/51 94/45/53
f 96/47/55 95/46/54 94/45/53
f 97/48/56 96/47/55 94/45/53
f 98/49/57 97/48/56 94/45/53
f 99/50/58 98/49/57 94/45/53
f 100/51/59 99/50/58 94/45/53
f 92/114/52 100/51/59 94/45/53
s 6
f 26/30/60 27/29/61 34/52/62
f 27/29/61 28/32/63 34/52/62
f 28/32/63 29/34/64 34/52/62
f 29/34/64 30/36/65 34/52/62
f 30/36/65 31/38/66 34/52/62
f 31/38/66 32/40/67 34/52/62
f 32/40/67 33/42/68 34/52/62
f 33/42/68 26/30/60 34/52/62
s 7
f 2/2/69 1/1/70 35/174/71 36/180/72
f 3/5/73 2/2/69 36/180/72 37/179/74
f 4/7/75 3/5/73 37/179/74 38/178/76
f 5/9/77 4/7/75 38/178/76 39/177/78
f 6/11/79 5/9/77 39/177/78 40/176/80
f 7/13/81 6/11/79 40/176/80 41/175/82
f 8/15/83 7/13/81 41/175/82 42/173/84
f 1/1/70 8/15/83 42/173/84 35/174/71
s 8
f 19/28/85 18/27/86 43/166/87 44/172/88
f 20/31/89 19/28/85 44/172/88 45/171/90
f 21/33/91 20/31/89 45/171/90 46/170/92
f 22/35/93 21/33/91 46/170/92 47/169/94
f 23/37/95 22/35/93 47/169/94 48/168/96
f 24/39/97 23/37/95 48/168/96 49/167/98
f 25/41/99 24/39/97 49/167/98 50/165/100
f 18/27/86 25/41/99 50/165/100 43/166/87
s 9
f 36/54/101 35/53/102 51/158/103 52/164/104
f 37/55/105 36/183/101 52/184/104 53/163/106
f 38/56/107 37/55/105 53/163/106 54/162/108
f 39/57/109 38/56/107 54/162/108 55/161/110
f 40/58/111 39/57/109 55/161/110 56/160/112
f 41/59/113 40/58/111 56/160/112 57/159/114
f 42/60/115 41/59/113 57/159/114 58/157/116
f 35/53/102 42/60/115 58/157/116 51/158/103
s 10
f 44/62/117 43/61/118 59/150/119 60/156/120
f 45/63/121 44/181/117 60/182/120 61/155/122
f 46/64/123 45/63/121 61/155/122 62/154/124
f 47/65/125 46/64/123 62/154/124 63/153/126
f 48/66/127 47/65/125 63/153/126 64/152/128
f 49/67/129 48/66/127 64/152/128 65/151/130
f 50/68/131 49/67/129 65/151/130 66/149/132
f 43/61/118 50/68/131 66/149/132 59/150/119
s 11
f 52/70/133 51/69/134 67/141/135 68/148/136
f 53/71/137 52/70/133 68/148/136 69/147/138
f 54/72/139 53/71/137 69/147/138 70/146/140
f 55/73/141 54/72/139 70/146/140 71/145/142
f 56/74/143 55/73/141 71/145/142 72/143/144
f 57/75/145 56/74/143 72/143/144 73/142/146
f 58/76/147 57/75/145 73/142/146 74/140/148
f 51/69/134 58/76/147 74/140/148 67/141/135
s 12
f 60/78/149 59/77/150 75/132/151 76/139/152
f 61/79/153 60/78/149 76/139/152 77/138/154
f 62/80/155 61/79/153 77/138/154 78/137/156
f 63/81/157 62/80/155 78/137/156 79/136/158
f 64/82/159 63/81/157 79/136/158 80/134/160
f 65/83/161 64/82/159 80/134/160 81/133/162
f 66/84/163 65/83/161 81/133/162 82/131/164
f 59/77/150 66/84/163 82/131/164 75/132/151
s 13
f 68/86/165 67/85/166 83/18/167 84/128/168
f 69/87/169 68/86/165 84/128/168 86/127/170
f 70/88/171 69/87/169 86/127/170 87/126/172
f 71/89/173 70/88/171 87/126/172 88/125/174
f 72/90/175 71/89/173 88/125/174 89/124/176
f 73/91/177 72/144/175 89/130/176 90/123/178
f 74/92/179 73/91/177 90/123/178 91/121/180
f 67/85/166 74/92/179 91/121/180 83/18/167
s 14
f 76/94/181 75/93/182 92/44/183 93/120/184
f 77/95/185 76/94/181 93/120/184 95/119/186
f 78/96/187 77/95/185 95/119/186 96/118/188
f 79/97/189 78/96/187 96/118/188 97/117/190
f 80/98/191 79/97/189 97/117/190 98/116/192
f 81/99/193 80/135/191 98/129/192 99/115/194
f 82/100/195 81/99/193 99/115/194 100/113/196
f 75/93/182 82/100/195 100/113/196 92/44/183
s 15
f 106/101/197 105/102/198 107/103/199 108/104/200
s 16
f 104/105/201 102/223/202 101/107/203 103/108/204
s 17
f 103/108/205 101/107/206 107/103/207 105/102/208
s 18
f 102/106/209 104/221/210 106/101/211 108/104/212
s 15
f 106/101/197 112/109/213 111/110/214 105/102/198
s 16
f 104/105/201 103/108/204 109/111/215 110/112/216
s 17
f 103/108/205 105/102/208 111/110/217 109/111/218
s 18
f 110/222/219 112/109/220 106/101/211 104/221/210
