# This file uses centimeters as units for non-parametric coordinates.

mtllib cylinder walls 2.mtl
g default
v 0.951057 -1.000000 -0.309017
v 0.809018 -1.000000 -0.587786
v 0.587786 -1.000000 -0.809017
v 0.309017 -1.000000 -0.951057
v 0.000000 -1.000000 -1.000000
v -0.309017 -1.000000 -0.951057
v -0.587785 -1.000000 -0.809017
v -0.809017 -1.000000 -0.587785
v -0.951057 -1.000000 -0.309017
v -1.000000 -1.000000 0.000000
v -0.951057 -1.000000 0.309017
v -0.809017 -1.000000 0.587785
v -0.587785 -1.000000 0.809017
v -0.309017 -1.000000 0.951057
v -0.000000 -1.000000 1.000000
v 0.309017 -1.000000 0.951057
v 0.587785 -1.000000 0.809017
v 0.809017 -1.000000 0.587785
v 0.951057 -1.000000 0.309017
v 1.000000 -1.000000 0.000000
v -0.859775 1.000000 0.510674
v -0.659888 1.000000 0.751365
v -0.395406 1.000000 0.918507
v -0.092219 1.000000 0.995740
v 0.219995 1.000000 0.975501
v 0.510674 1.000000 0.859775
v 0.751365 1.000000 0.659888
v 0.918507 1.000000 0.395405
v 0.995740 1.000000 0.092218
v 0.975500 1.000000 -0.219996
v 0.859775 1.000000 -0.510675
v 0.659887 1.000000 -0.751365
v 0.395405 1.000000 -0.918507
v 0.092218 1.000000 -0.995740
v -0.219996 1.000000 -0.975502
v -0.510674 1.000000 -0.859775
v -0.751365 1.000000 -0.659888
v -0.918507 1.000000 -0.395405
v -0.995740 1.000000 -0.092219
v -0.975501 1.000000 0.219995
v 0.055056 0.000000 -0.998484
v 0.360909 0.000000 -0.932601
v 0.631435 0.000000 -0.775429
v 0.840151 0.000000 -0.542353
v 0.966627 0.000000 -0.256188
v 0.998484 0.000000 0.055055
v 0.932601 0.000000 0.360909
v 0.775429 0.000000 0.631435
v 0.542353 0.000000 0.840151
v 0.256187 0.000000 0.966627
v -0.055056 0.000000 0.998484
v -0.360909 0.000000 0.932601
v -0.631435 0.000000 0.775429
v -0.840151 0.000000 0.542353
v -0.966627 0.000000 0.256187
v -0.998484 0.000000 -0.055056
v -0.932601 0.000000 -0.360910
v -0.775429 0.000000 -0.631435
v -0.542353 0.000000 -0.840152
v -0.256187 0.000000 -0.966628
v -0.889638 0.500000 -0.456668
v -0.704978 0.500000 -0.709230
v -0.451310 0.500000 -0.892368
v -0.153464 0.500000 -0.988155
v 0.159403 0.500000 -0.987214
v 0.456668 0.500000 -0.889638
v 0.709231 0.500000 -0.704978
v 0.892367 0.500000 -0.451310
v 0.988154 0.500000 -0.153465
v 0.987214 0.500000 0.159403
v 0.889638 0.500000 0.456667
v 0.704977 0.500000 0.709229
v 0.451310 0.500000 0.892367
v 0.153464 0.500000 0.988154
v -0.159404 0.500000 0.987213
v -0.456668 0.500000 0.889637
v -0.709230 0.500000 0.704978
v -0.892368 0.500000 0.451309
v -0.988155 0.500000 0.153464
v -0.987214 0.500000 -0.159404
v 0.619495 -0.500000 -0.785002
v 0.831753 -0.500000 -0.555146
v 0.962594 -0.500000 -0.270950
v 0.999209 -0.500000 0.039769
v 0.938015 -0.500000 0.346596
v 0.785001 -0.500000 0.619494
v 0.555146 -0.500000 0.831753
v 0.270950 -0.500000 0.962594
v -0.039769 -0.500000 0.999209
v -0.346596 -0.500000 0.938015
v -0.619494 -0.500000 0.785001
v -0.831753 -0.500000 0.555146
v -0.962594 -0.500000 0.270949
v -0.999209 -0.500000 -0.039770
v -0.938015 -0.500000 -0.346596
v -0.785001 -0.500000 -0.619495
v -0.555146 -0.500000 -0.831753
v -0.270950 -0.500000 -0.962594
v 0.039770 -0.500000 -0.999210
v 0.346596 -0.500000 -0.938015
vt 1.000000 0.997846
vt 0.950000 0.997846
vt 0.900000 0.997846
vt 0.850000 0.997846
vt 0.800000 0.997846
vt 0.750000 0.997846
vt 0.700000 0.997846
vt 0.650000 0.997846
vt 0.600000 0.997846
vt 0.550000 0.997846
vt 0.500000 0.997846
vt 0.450000 0.997846
vt 0.400000 0.997846
vt 0.350000 0.997846
vt 0.300000 0.997846
vt 0.250000 0.997846
vt 0.200000 0.997846
vt 0.150000 0.997846
vt 0.100000 0.997846
vt 0.050000 0.997846
vt 0.000000 0.997846
vt 1.000000 -0.010707
vt 0.950000 -0.010707
vt 0.900000 -0.010707
vt 0.850000 -0.010707
vt 0.800000 -0.010707
vt 0.750000 -0.010707
vt 0.700000 -0.010707
vt 0.650000 -0.010707
vt 0.600000 -0.010707
vt 0.550000 -0.010707
vt 0.500000 -0.010707
vt 0.450000 -0.010707
vt 0.400000 -0.010707
vt 0.350000 -0.010707
vt 0.300000 -0.010707
vt 0.250000 -0.010707
vt 0.200000 -0.010708
vt 0.150000 -0.010707
vt 0.100000 -0.010708
vt 0.050000 -0.010708
vt 0.000000 -0.010708
vt 0.000000 0.493569
vt 1.000000 0.493569
vt 0.050000 0.493569
vt 0.100000 0.493569
vt 0.150000 0.493570
vt 0.200000 0.493569
vt 0.250000 0.493570
vt 0.300000 0.493570
vt 0.350000 0.493570
vt 0.400000 0.493570
vt 0.450000 0.493570
vt 0.500000 0.493570
vt 0.550000 0.493569
vt 0.600000 0.493569
vt 0.650000 0.493570
vt 0.700000 0.493570
vt 0.750000 0.493570
vt 0.800000 0.493569
vt 0.850000 0.493570
vt 0.900000 0.493570
vt 0.950000 0.493569
vt 0.000000 0.241431
vt 1.000000 0.241431
vt 0.050000 0.241431
vt 0.100000 0.241431
vt 0.150000 0.241431
vt 0.200000 0.241431
vt 0.250000 0.241431
vt 0.300000 0.241431
vt 0.350000 0.241431
vt 0.400000 0.241431
vt 0.450000 0.241432
vt 0.500000 0.241432
vt 0.550000 0.241431
vt 0.600000 0.241431
vt 0.650000 0.241431
vt 0.700000 0.241431
vt 0.750000 0.241431
vt 0.800000 0.241431
vt 0.850000 0.241431
vt 0.900000 0.241431
vt 0.950000 0.241431
vt 0.000000 0.745708
vt 1.000000 0.745708
vt 0.050000 0.745708
vt 0.100000 0.745708
vt 0.150000 0.745708
vt 0.200000 0.745708
vt 0.250000 0.745708
vt 0.300000 0.745708
vt 0.350000 0.745708
vt 0.400000 0.745708
vt 0.450000 0.745708
vt 0.500000 0.745708
vt 0.550000 0.745708
vt 0.600000 0.745708
vt 0.650000 0.745708
vt 0.700000 0.745708
vt 0.750000 0.745708
vt 0.800000 0.745708
vt 0.850000 0.745708
vt 0.900000 0.745708
vt 0.950000 0.745708
vn 0.865115 0.000002 -0.501573
vn 0.667778 -0.000000 -0.744361
vn 0.342215 -0.000000 -0.939622
vn 0.615825 0.000001 -0.787883
vn 0.405074 -0.000000 -0.914284
vn 0.035106 -0.000001 -0.999384
vn 0.102719 -0.000000 -0.994710
vn -0.275439 -0.000001 -0.961319
vn -0.209691 -0.000000 -0.977768
vn -0.559022 -0.000000 -0.829153
vn -0.501574 0.000000 -0.865114
vn -0.787883 0.000000 -0.615824
vn -0.744361 0.000000 -0.667778
vn -0.939622 -0.000001 -0.342214
vn -0.914284 -0.000000 -0.405074
vn -0.999384 -0.000000 -0.035106
vn -0.994710 -0.000000 -0.102719
vn -0.961319 0.000000 0.275439
vn -0.977768 0.000000 0.209691
vn -0.829153 0.000000 0.559021
vn -0.865115 0.000000 0.501574
vn -0.615825 0.000000 0.787883
vn -0.667778 0.000000 0.744361
vn -0.342214 -0.000000 0.939622
vn -0.405074 0.000000 0.914284
vn -0.035106 0.000000 0.999384
vn -0.102719 0.000000 0.994710
vn 0.275439 0.000000 0.961319
vn 0.209691 0.000000 0.977768
vn 0.559021 0.000000 0.829153
vn 0.501574 0.000000 0.865115
vn 0.787883 0.000000 0.615825
vn 0.744361 -0.000000 0.667778
vn 0.939622 -0.000001 0.342214
vn 0.914284 -0.000000 0.405075
vn 0.999384 -0.000000 0.035106
vn 0.994710 -0.000000 0.102719
vn 0.961319 -0.000000 -0.275439
vn 0.977768 -0.000000 -0.209690
vn 0.829154 0.000001 -0.559021
vn 0.267288 0.000002 -0.963617
vn -0.043568 0.000002 -0.999051
vn -0.878515 0.000003 -0.477715
vn -0.687896 0.000001 -0.725809
vn 0.551978 -0.000001 -0.833858
vn -0.429941 0.000001 -0.902857
vn 0.782640 -0.000000 -0.622475
vn -0.129902 -0.000003 -0.991527
vn 0.936690 -0.000001 -0.350161
vn 0.182856 -0.000000 -0.983140
vn 0.999050 -0.000001 -0.043570
vn 0.477714 -0.000000 -0.878516
vn 0.963617 0.000002 0.267288
vn 0.725809 -0.000001 -0.687896
vn 0.833858 -0.000000 0.551979
vn 0.902857 0.000003 -0.429940
vn 0.622475 0.000000 0.782639
vn 0.991527 -0.000000 -0.129901
vn 0.350161 -0.000001 0.936690
vn 0.983140 -0.000002 0.182855
vn 0.043569 0.000001 0.999050
vn 0.878515 0.000002 0.477714
vn -0.267288 0.000001 0.963617
vn 0.687897 0.000000 0.725809
vn -0.551979 -0.000001 0.833858
vn 0.429941 0.000000 0.902857
vn -0.782640 0.000000 0.622475
vn 0.129901 -0.000002 0.991527
vn -0.936690 -0.000001 0.350161
vn -0.182856 -0.000001 0.983140
vn -0.999050 -0.000001 0.043569
vn -0.477713 -0.000001 0.878516
vn -0.963617 0.000001 -0.267287
vn -0.725809 -0.000001 0.687896
vn -0.833858 -0.000000 -0.551979
vn -0.902857 0.000001 0.429940
vn -0.622476 -0.000001 -0.782639
vn -0.991527 -0.000002 0.129901
vn -0.350160 -0.000001 -0.936690
vn -0.983140 -0.000002 -0.182856
vn -0.992074 -0.000000 0.125655
vn -0.982348 0.000004 -0.187065
vn -0.876463 -0.000002 -0.481469
vn -0.684783 0.000001 -0.728747
vn -0.426074 -0.000003 -0.904688
vn -0.125654 0.000001 -0.992074
vn 0.187063 0.000000 -0.982348
vn 0.481469 -0.000002 -0.876463
vn 0.728747 0.000003 -0.684783
vn 0.904689 -0.000001 -0.426073
vn 0.992074 -0.000002 -0.125656
vn 0.982348 0.000004 0.187065
vn 0.876464 -0.000004 0.481468
vn 0.684783 0.000001 0.728747
vn 0.426073 -0.000002 0.904689
vn 0.125655 -0.000001 0.992074
vn -0.187063 -0.000000 0.982348
vn -0.481470 -0.000002 0.876463
vn -0.728747 -0.000000 0.684783
vn -0.904688 -0.000004 0.426074
s 1
g pCylinder1
usemtl initialShadingGroup
f 1/1/1 2/2/2 100/105/3 81/86/4
f 2/2/2 3/3/5 99/104/6 100/105/3
f 3/3/5 4/4/7 98/103/8 99/104/6
f 4/4/7 5/5/9 97/102/10 98/103/8
f 5/5/9 6/6/11 96/101/12 97/102/10
f 6/6/11 7/7/13 95/100/14 96/101/12
f 7/7/13 8/8/15 94/99/16 95/100/14
f 8/8/15 9/9/17 93/98/18 94/99/16
f 9/9/17 10/10/19 92/97/20 93/98/18
f 10/10/19 11/11/21 91/96/22 92/97/20
f 11/11/21 12/12/23 90/95/24 91/96/22
f 12/12/23 13/13/25 89/94/26 90/95/24
f 13/13/25 14/14/27 88/93/28 89/94/26
f 14/14/27 15/15/29 87/92/30 88/93/28
f 15/15/29 16/16/31 86/91/32 87/92/30
f 16/16/31 17/17/33 85/90/34 86/91/32
f 17/17/33 18/18/35 84/89/36 85/90/34
f 18/18/35 19/19/37 83/88/38 84/89/36
f 19/19/37 20/20/39 82/87/40 83/88/38
f 20/20/39 1/21/1 81/85/4 82/87/40
f 42/45/41 41/43/42 61/64/43 62/66/44
f 43/46/45 42/45/41 62/66/44 63/67/46
f 44/47/47 43/46/45 63/67/46 64/68/48
f 45/48/49 44/47/47 64/68/48 65/69/50
f 46/49/51 45/48/49 65/69/50 66/70/52
f 47/50/53 46/49/51 66/70/52 67/71/54
f 48/51/55 47/50/53 67/71/54 68/72/56
f 49/52/57 48/51/55 68/72/56 69/73/58
f 50/53/59 49/52/57 69/73/58 70/74/60
f 51/54/61 50/53/59 70/74/60 71/75/62
f 52/55/63 51/54/61 71/75/62 72/76/64
f 53/56/65 52/55/63 72/76/64 73/77/66
f 54/57/67 53/56/65 73/77/66 74/78/68
f 55/58/69 54/57/67 74/78/68 75/79/70
f 56/59/71 55/58/69 75/79/70 76/80/72
f 57/60/73 56/59/71 76/80/72 77/81/74
f 58/61/75 57/60/73 77/81/74 78/82/76
f 59/62/77 58/61/75 78/82/76 79/83/78
f 60/63/79 59/62/77 79/83/78 80/84/80
f 41/44/42 60/63/79 80/84/80 61/65/43
f 62/66/44 61/64/43 21/42/81 40/41/82
f 63/67/46 62/66/44 40/41/82 39/40/83
f 64/68/48 63/67/46 39/40/83 38/39/84
f 65/69/50 64/68/48 38/39/84 37/38/85
f 66/70/52 65/69/50 37/38/85 36/37/86
f 67/71/54 66/70/52 36/37/86 35/36/87
f 68/72/56 67/71/54 35/36/87 34/35/88
f 69/73/58 68/72/56 34/35/88 33/34/89
f 70/74/60 69/73/58 33/34/89 32/33/90
f 71/75/62 70/74/60 32/33/90 31/32/91
f 72/76/64 71/75/62 31/32/91 30/31/92
f 73/77/66 72/76/64 30/31/92 29/30/93
f 74/78/68 73/77/66 29/30/93 28/29/94
f 75/79/70 74/78/68 28/29/94 27/28/95
f 76/80/72 75/79/70 27/28/95 26/27/96
f 77/81/74 76/80/72 26/27/96 25/26/97
f 78/82/76 77/81/74 25/26/97 24/25/98
f 79/83/78 78/82/76 24/25/98 23/24/99
f 80/84/80 79/83/78 23/24/99 22/23/100
f 61/65/43 80/84/80 22/23/100 21/22/81
f 82/87/40 81/85/4 41/43/42 42/45/41
f 83/88/38 82/87/40 42/45/41 43/46/45
f 84/89/36 83/88/38 43/46/45 44/47/47
f 85/90/34 84/89/36 44/47/47 45/48/49
f 86/91/32 85/90/34 45/48/49 46/49/51
f 87/92/30 86/91/32 46/49/51 47/50/53
f 88/93/28 87/92/30 47/50/53 48/51/55
f 89/94/26 88/93/28 48/51/55 49/52/57
f 90/95/24 89/94/26 49/52/57 50/53/59
f 91/96/22 90/95/24 50/53/59 51/54/61
f 92/97/20 91/96/22 51/54/61 52/55/63
f 93/98/18 92/97/20 52/55/63 53/56/65
f 94/99/16 93/98/18 53/56/65 54/57/67
f 95/100/14 94/99/16 54/57/67 55/58/69
f 96/101/12 95/100/14 55/58/69 56/59/71
f 97/102/10 96/101/12 56/59/71 57/60/73
f 98/103/8 97/102/10 57/60/73 58/61/75
f 99/104/6 98/103/8 58/61/75 59/62/77
f 100/105/3 99/104/6 59/62/77 60/63/79
f 81/86/4 100/105/3 60/63/79 41/44/42
