# This file uses centimeters as units for non-parametric coordinates.

mtllib cylinder walls only.mtl
g default
v 0.951057 -1.000000 -0.309017
v 0.809018 -1.000000 -0.587786
v 0.587786 -1.000000 -0.809017
v 0.309017 -1.000000 -0.951057
v 0.000000 -1.000000 -1.000000
v -0.309017 -1.000000 -0.951057
v -0.587785 -1.000000 -0.809017
v -0.809017 -1.000000 -0.587785
v -0.951057 -1.000000 -0.309017
v -1.000000 -1.000000 0.000000
v -0.951057 -1.000000 0.309017
v -0.809017 -1.000000 0.587785
v -0.587785 -1.000000 0.809017
v -0.309017 -1.000000 0.951057
v -0.000000 -1.000000 1.000000
v 0.309017 -1.000000 0.951057
v 0.587785 -1.000000 0.809017
v 0.809017 -1.000000 0.587785
v 0.951057 -1.000000 0.309017
v 1.000000 -1.000000 0.000000
v 0.951057 1.000000 -0.309017
v 0.809018 1.000000 -0.587786
v 0.587786 1.000000 -0.809017
v 0.309017 1.000000 -0.951057
v 0.000000 1.000000 -1.000000
v -0.309017 1.000000 -0.951057
v -0.587785 1.000000 -0.809017
v -0.809017 1.000000 -0.587785
v -0.951057 1.000000 -0.309017
v -1.000000 1.000000 0.000000
v -0.951057 1.000000 0.309017
v -0.809017 1.000000 0.587785
v -0.587785 1.000000 0.809017
v -0.309017 1.000000 0.951057
v -0.000000 1.000000 1.000000
v 0.309017 1.000000 0.951057
v 0.587785 1.000000 0.809017
v 0.809017 1.000000 0.587785
v 0.951057 1.000000 0.309017
v 1.000000 1.000000 0.000000
vt 0.000637 0.998008
vt 0.000637 0.948207
vt 0.000637 0.898406
vt 0.000637 0.848605
vt 0.000637 0.798805
vt 0.000637 0.749004
vt 0.000637 0.699203
vt 0.000637 0.649402
vt 0.000637 0.599602
vt 0.000637 0.549801
vt 0.000637 0.500000
vt 0.000637 0.450199
vt 0.000637 0.400398
vt 0.000637 0.350598
vt 0.000637 0.300797
vt 0.000637 0.250996
vt 0.000637 0.201195
vt 0.000637 0.151394
vt 0.000637 0.101594
vt 0.000637 0.051793
vt 0.000637 0.001992
vt 0.318986 0.998008
vt 0.318986 0.948207
vt 0.318986 0.898406
vt 0.318986 0.848606
vt 0.318986 0.798805
vt 0.318986 0.749004
vt 0.318986 0.699203
vt 0.318986 0.649402
vt 0.318986 0.599602
vt 0.318986 0.549801
vt 0.318986 0.500000
vt 0.318986 0.450199
vt 0.318986 0.400398
vt 0.318986 0.350598
vt 0.318986 0.300797
vt 0.318986 0.250996
vt 0.318986 0.201195
vt 0.318986 0.151394
vt 0.318986 0.101594
vt 0.318986 0.051793
vt 0.318986 0.001992
vn 0.951057 0.000000 -0.309016
vn 0.809017 0.000000 -0.587785
vn 0.809017 0.000000 -0.587785
vn 0.951057 0.000000 -0.309016
vn 0.587785 0.000000 -0.809017
vn 0.587785 0.000000 -0.809017
vn 0.309017 0.000000 -0.951057
vn 0.309017 0.000000 -0.951057
vn -0.000000 0.000000 -1.000000
vn -0.000000 0.000000 -1.000000
vn -0.309017 0.000000 -0.951056
vn -0.309017 0.000000 -0.951056
vn -0.587785 0.000000 -0.809017
vn -0.587785 0.000000 -0.809017
vn -0.809017 0.000000 -0.587785
vn -0.809017 0.000000 -0.587785
vn -0.951057 0.000000 -0.309017
vn -0.951057 0.000000 -0.309017
vn -1.000000 0.000000 0.000000
vn -1.000000 0.000000 0.000000
vn -0.951057 0.000000 0.309017
vn -0.951057 0.000000 0.309017
vn -0.809017 0.000000 0.587785
vn -0.809017 0.000000 0.587785
vn -0.587785 0.000000 0.809017
vn -0.587785 0.000000 0.809017
vn -0.309017 0.000000 0.951057
vn -0.309017 0.000000 0.951057
vn 0.000000 0.000000 1.000000
vn 0.000000 0.000000 1.000000
vn 0.309017 0.000000 0.951057
vn 0.309017 0.000000 0.951057
vn 0.587785 0.000000 0.809017
vn 0.587785 0.000000 0.809017
vn 0.809017 0.000000 0.587785
vn 0.809017 0.000000 0.587785
vn 0.951057 0.000000 0.309017
vn 0.951057 0.000000 0.309017
vn 1.000000 0.000000 0.000001
vn 1.000000 0.000000 0.000001
s 1
g pCylinder1
usemtl initialShadingGroup
f 1/1/1 2/2/2 22/23/3 21/22/4
f 2/2/2 3/3/5 23/24/6 22/23/3
f 3/3/5 4/4/7 24/25/8 23/24/6
f 4/4/7 5/5/9 25/26/10 24/25/8
f 5/5/9 6/6/11 26/27/12 25/26/10
f 6/6/11 7/7/13 27/28/14 26/27/12
f 7/7/13 8/8/15 28/29/16 27/28/14
f 8/8/15 9/9/17 29/30/18 28/29/16
f 9/9/17 10/10/19 30/31/20 29/30/18
f 10/10/19 11/11/21 31/32/22 30/31/20
f 11/11/21 12/12/23 32/33/24 31/32/22
f 12/12/23 13/13/25 33/34/26 32/33/24
f 13/13/25 14/14/27 34/35/28 33/34/26
f 14/14/27 15/15/29 35/36/30 34/35/28
f 15/15/29 16/16/31 36/37/32 35/36/30
f 16/16/31 17/17/33 37/38/34 36/37/32
f 17/17/33 18/18/35 38/39/36 37/38/34
f 18/18/35 19/19/37 39/40/38 38/39/36
f 19/19/37 20/20/39 40/41/40 39/40/38
f 20/20/39 1/21/1 21/42/4 40/41/40
